<svg width="425" height="362" viewBox="0 0 425 362" fill="none" xmlns="http://www.w3.org/2000/svg">
<path d="M29.9801 163.13L1.61007 303.23C1.10007 305.76 2.22007 308.36 4.44007 309.67C9.37007 312.56 19.3101 316.6 34.1801 314.33C36.6401 313.95 38.6501 312.14 39.2401 309.72L61.5201 217.7L66.5801 208.87L91.6201 303.17C92.3001 305.73 94.6601 307.49 97.3001 307.36C102.36 307.11 111.35 305.37 123.33 297.81C125.33 296.55 126.35 294.2 125.88 291.88L100.09 166.47L29.9801 163.14V163.13Z" fill="white"/>
<path d="M25.73 315.49C15.2 315.49 7.94997 312.31 4.19997 310.1C1.79997 308.69 0.569965 305.89 1.12997 303.13L29.5 163.03C29.55 162.79 29.77 162.6 30.01 162.63L100.12 165.96C100.35 165.97 100.54 166.13 100.59 166.36L126.38 291.78C126.89 294.27 125.78 296.86 123.61 298.23C111.77 305.71 102.78 307.6 97.34 307.86C94.49 308.01 91.89 306.08 91.15 303.3L66.42 210.17L62 217.88L39.73 309.84C39.1 312.46 36.95 314.42 34.26 314.83C31.21 315.29 28.36 315.5 25.73 315.5V315.49ZM30.39 163.65L2.10997 303.33C1.62997 305.67 2.67996 308.05 4.70996 309.24C9.29996 311.93 19.21 316.11 34.12 313.84C36.4 313.49 38.23 311.83 38.77 309.61L61.05 217.59C61.05 217.59 61.08 217.5 61.1 217.46L66.16 208.63C66.26 208.45 66.46 208.36 66.66 208.38C66.86 208.41 67.03 208.55 67.08 208.75L92.12 303.05C92.74 305.38 94.92 306.99 97.3 306.87C102.63 306.61 111.43 304.76 123.09 297.39C124.91 296.24 125.84 294.07 125.41 291.99L99.7 166.96L30.41 163.66L30.39 163.65Z" fill="#730202"/>
<path d="M66.5801 209.37C66.4901 209.37 66.4001 209.34 66.3101 209.29C66.0801 209.14 66.0101 208.83 66.1601 208.6L79.4201 187.78C79.5701 187.55 79.8801 187.48 80.1101 187.63C80.3401 187.78 80.4101 188.09 80.2601 188.32L67.0001 209.14C66.9001 209.29 66.7401 209.37 66.5801 209.37Z" fill="#730202"/>
<path d="M74.18 64.35C90.22 64.92 104.78 75.42 106.13 83.86C107.49 92.3 108.58 175.11 108.58 175.11L27.99 166.85C26.13 166.66 24.8 164.97 25.06 163.11C27.14 148.51 35.47 91.1 39.39 78.86C43.88 64.8 60.9 63.87 74.18 64.35Z" fill="#F23005"/>
<path d="M96.97 72.04C107.15 78.61 115.19 88.5601 120.74 106.74C126.29 124.92 129.99 147.89 129.99 147.89L101.91 149.17L96.97 72.04Z" fill="#F23005"/>
<path d="M107.9 99.15C107.63 99.15 107.4 98.93 107.4 98.66C107.24 87.14 103.08 78.47 103.03 78.38C102.91 78.13 103.01 77.83 103.26 77.71C103.51 77.59 103.81 77.69 103.93 77.94C103.97 78.03 108.23 86.9 108.4 98.64C108.4 98.92 108.18 99.14 107.91 99.15H107.9Z" fill="#730202"/>
<path d="M45.47 70.11C45.47 70.11 39.6 71.72 31.75 85.31C23.9 98.9 8.59996 129.32 15.87 135.06C23.14 140.8 73.09 151.9 73.09 151.9C73.09 151.9 81.13 136.97 79.98 131.23L45.47 70.11Z" fill="#F23005"/>
<path d="M100.1 29.56C101.52 42.24 104.96 53.63 104.75 60.43C104.63 64.32 103.2 67.97 102.01 70.39C101.14 72.14 99.19 73.05 97.29 72.61L78.61 68.28L78.48 56.93L100.11 29.56H100.1Z" fill="#730202"/>
<path d="M102.27 30.9C102.27 30.9 92.53 29.91 90.23 21.02C90.23 21.02 90.22 21.03 90.19 21.06C90.16 21.09 90.12 21.13 90.06 21.19H90.05C89.45 21.78 87.39 23.73 84.44 25.7C84.4 25.73 84.36 25.75 84.31 25.78C82.45 26.97 80.15 28.21 77.45 29.27H77.42L74.69 30.24L74.25 30.39C66.58 33.09 62.11 41.28 64.39 49.09C64.98 51.11 65.98 53 67.38 54.57C72.98 60.88 72.69 67.81 72.69 67.81C72.69 67.81 60.38 63.64 48.38 65.71C36.37 67.78 50.22 26.46 62.07 15.26C73.92 4.06 84.27 6.79999 86.99 8.58999C86.99 8.58999 91.98 4.75 97.68 12.33C103.03 19.45 102.24 30.91 102.24 30.91L102.27 30.9Z" fill="#730202"/>
<path d="M66.44 51.56C65.4 59.38 63.46 68.41 63.46 68.41C63.46 68.41 64.78 75.99 72.46 77.27C80.14 78.56 80.93 71.97 81.03 70.61C81.12 69.24 79.58 61.07 79.51 59.58C79.44 58.09 66.44 51.56 66.44 51.56Z" fill="white"/>
<path d="M74.34 77.94C73.72 77.94 73.07 77.88 72.38 77.77C64.44 76.44 62.99 68.58 62.97 68.5C62.96 68.44 62.97 68.37 62.97 68.31C62.99 68.22 64.91 59.21 65.94 51.5C65.96 51.34 66.06 51.2 66.2 51.12C66.34 51.05 66.51 51.04 66.66 51.12C71.61 53.61 79.93 58.02 80 59.57C80.03 60.18 80.33 62.05 80.65 64.03C81.19 67.42 81.58 69.87 81.52 70.65C81.44 71.83 81 74.77 78.75 76.55C77.58 77.48 76.1 77.94 74.34 77.94ZM63.97 68.41C64.15 69.29 65.67 75.63 72.54 76.78C74.89 77.17 76.77 76.83 78.13 75.76C80.08 74.22 80.45 71.62 80.53 70.57C80.58 69.84 80.07 66.7 79.67 64.18C79.33 62.08 79.04 60.27 79.01 59.6C78.69 58.74 72.68 55.28 66.84 52.32C65.85 59.47 64.18 67.43 63.97 68.41Z" fill="#730202"/>
<path d="M96.9201 55.49C90.1501 61.75 75.9101 61.62 67.4201 54.58C66.0101 52.99 65.0101 51.11 64.4301 49.09C62.1501 41.29 66.6201 33.09 74.2901 30.39L74.7301 30.24C75.6801 29.95 76.5901 29.62 77.4601 29.28H77.4901C80.1901 28.21 82.4901 26.97 84.3501 25.78C84.3901 25.76 84.4401 25.73 84.4801 25.7C87.6401 23.66 89.5401 21.78 90.0901 21.2H90.1001C90.1601 21.13 90.2001 21.09 90.2301 21.06C90.2501 21.03 90.2701 21.02 90.2701 21.02C91.3101 26.29 99.8901 29.47 100.13 29.55C101.45 35.48 103.63 49.3 96.9501 55.48L96.9201 55.49Z" fill="white"/>
<path d="M83.52 60.5C77.67 60.5 71.53 58.64 67.1 54.97C67.07 54.94 67.04 54.91 67.01 54.87C65.61 53.31 64.57 51.4 63.94 49.23C61.6 41.23 66.07 32.75 74.11 29.92L74.55 29.77C75.49 29.48 76.4 29.16 77.26 28.82C79.65 27.89 81.93 26.73 84.06 25.36L84.18 25.29C87.46 23.17 89.35 21.23 89.7 20.87C89.72 20.85 89.76 20.82 89.78 20.8L89.83 20.74C89.96 20.6 90.17 20.52 90.35 20.57C90.53 20.62 90.69 20.75 90.73 20.94C91.72 25.93 100.19 29.07 100.27 29.1C100.43 29.16 100.55 29.29 100.59 29.46C101.89 35.27 104.16 49.48 97.26 55.87C93.9 58.98 88.82 60.51 83.52 60.51V60.5ZM89.99 22C89.15 22.82 87.4 24.41 84.73 26.13C84.69 26.16 84.63 26.19 84.58 26.22C82.41 27.6 80.08 28.79 77.66 29.74C76.75 30.1 75.82 30.43 74.87 30.72L74.45 30.87C66.91 33.52 62.71 41.46 64.91 48.95C65.5 50.97 66.47 52.75 67.79 54.24C75.84 60.9 89.85 61.36 96.59 55.13C103.01 49.19 100.95 35.73 99.68 29.94C98.25 29.38 91.61 26.57 90 22.01L89.99 22Z" fill="#730202"/>
<path d="M80.23 35.63C78.09 34.19 75.79 34.29 73.63 35.65C73.17 35.96 72.61 35.34 72.95 34.91C74.3 32.93 77.16 32.17 79.25 33.41C79.8 33.73 81.63 34.97 80.83 35.65C80.64 35.79 80.4 35.76 80.22 35.63H80.23Z" fill="#730202"/>
<path d="M98.03 33.17C96.38 32.16 94.13 32.49 92.41 33.27C91.76 33.55 91.13 33.93 90.46 34.3C89.99 34.58 89.47 33.94 89.83 33.54C91.77 30.86 96.77 29.57 98.9 32.68C99.12 33.1 98.59 33.56 98.21 33.29L98.03 33.17Z" fill="#730202"/>
<path d="M91.19 46.38C91.1 46.38 91.01 46.38 90.92 46.37C89.44 46.24 87.85 45 87.86 43.22C87.86 42.94 88.09 42.72 88.36 42.72C88.64 42.72 88.86 42.95 88.86 43.22C88.86 44.39 89.96 45.28 91.01 45.37C91.44 45.4 92.45 45.35 92.67 44.02C92.75 43.57 92.67 43.21 92.42 42.92C91.8 42.18 90.28 42 89.75 41.99C89.49 41.99 89.27 41.78 89.26 41.52C89.26 41.38 89.06 38.07 89.67 33.84C89.71 33.57 89.97 33.38 90.24 33.42C90.51 33.46 90.7 33.71 90.66 33.99C90.19 37.24 90.21 40 90.24 41.03C90.99 41.11 92.42 41.37 93.19 42.28C93.63 42.8 93.79 43.45 93.66 44.19C93.43 45.55 92.48 46.38 91.19 46.38Z" fill="#730202"/>
<path d="M78.81 39.12C78.45 40.33 78.84 41.51 79.67 41.75C80.5 41.99 81.47 41.23 81.83 40.02C81.94 39.66 81.98 39.29 81.95 38.96L80.28 39.31L81.49 37.75C81.34 37.58 81.17 37.47 80.96 37.41C80.13 37.16 79.16 37.93 78.8 39.13L78.81 39.12Z" fill="#730202"/>
<path d="M94.39 38.08C93.92 39.25 94.1901 40.46 94.9901 40.78C95.7901 41.1 96.83 40.43 97.31 39.26C97.45 38.91 97.52 38.55 97.53 38.21L95.84 38.4L97.19 36.96C97.06 36.78 96.9 36.65 96.7 36.57C95.9 36.24 94.86 36.92 94.39 38.08Z" fill="#730202"/>
<path d="M81.84 52.58C81.42 52.58 81.01 52.51 80.61 52.35C79.13 51.78 78.27 50.3 78.35 48.47C78.36 48.19 78.6 47.96 78.87 47.99C79.15 48 79.36 48.24 79.35 48.51C79.29 49.89 79.91 51 80.97 51.41C82.12 51.85 83.46 51.36 84.47 50.13C84.64 49.92 84.96 49.89 85.17 50.06C85.38 50.24 85.41 50.55 85.24 50.76C84.28 51.93 83.05 52.57 81.84 52.57V52.58Z" fill="#730202"/>
<path d="M77.47 29.77C77.27 29.77 77.08 29.65 77 29.44C76.91 29.18 77.03 28.9 77.29 28.8C79.65 27.88 81.93 26.72 84.06 25.36C84.29 25.21 84.6 25.28 84.75 25.51C84.9 25.74 84.84 26.05 84.61 26.2C82.28 27.74 79.94 28.94 77.64 29.74C77.59 29.76 77.53 29.77 77.47 29.77Z" fill="#730202"/>
<path d="M102.56 20.39C93.1501 20.61 82.8501 23 80.3201 23.62C79.9401 23.71 79.7401 23.77 79.7401 23.77C71.0901 24.78 54.1001 27.82 54.1001 27.82C54.1001 27.82 53.2701 18.59 57.3301 12.07C61.3901 5.55 73.0201 0.240004 83.9001 2.3C93.6801 4.15 101.94 9.28 102.57 20.38L102.56 20.39Z" fill="#424D1D"/>
<path d="M54.09 28.32C53.98 28.32 53.87 28.28 53.79 28.22C53.68 28.14 53.61 28.01 53.6 27.87C53.57 27.49 52.8 18.4 56.9 11.81C60.96 5.27998 72.82 -0.300013 83.99 1.81999C95.91 4.07999 102.5 10.49 103.06 20.36C103.06 20.49 103.02 20.63 102.93 20.73C102.84 20.83 102.71 20.89 102.57 20.89C93.34 21.11 83.3 23.41 80.44 24.11C80.07 24.2 79.87 24.25 79.87 24.26C71.27 25.27 54.36 28.29 54.19 28.32C54.16 28.32 54.13 28.32 54.1 28.32H54.09ZM79.01 2.35999C69.83 2.35999 61.06 7.00998 57.75 12.34C54.38 17.75 54.47 25.18 54.56 27.24C57.56 26.71 71.98 24.18 79.67 23.28C79.67 23.28 79.88 23.22 80.21 23.14C83.04 22.45 92.85 20.2 102.03 19.91C101.11 8.46999 91.65 4.28999 83.8 2.79999C82.21 2.49999 80.6 2.35999 79.01 2.35999Z" fill="#730202"/>
<path d="M79.74 23.77C79.74 23.77 100.29 14.99 111.28 16.8C120.9 18.39 114.55 22.33 106.74 24.79C104.69 25.43 102.53 25.61 100.4 25.32C95.54 24.65 85.73 23.45 79.73 23.77H79.74Z" fill="#424D1D"/>
<path d="M102.39 25.95C101.7 25.95 101.02 25.9 100.34 25.81C95.18 25.1 85.65 23.94 79.77 24.27C79.53 24.3 79.31 24.12 79.26 23.88C79.2 23.64 79.33 23.4 79.55 23.31C80.39 22.95 100.36 14.5 111.37 16.31C114.82 16.88 116.55 17.81 116.64 19.14C116.83 21.85 109.89 24.32 106.9 25.26C105.45 25.72 103.92 25.95 102.4 25.95H102.39ZM82.47 23.21C88.33 23.26 96.03 24.2 100.48 24.81C102.52 25.09 104.64 24.92 106.6 24.3C112.64 22.4 115.72 20.3 115.65 19.2C115.63 18.92 115.25 17.95 111.21 17.28C102.74 15.89 88.29 20.96 82.47 23.2V23.21Z" fill="#730202"/>
<path d="M79 22.32C78.76 22.32 78.55 22.15 78.51 21.9C78.41 21.29 75.96 6.94004 77.5 2.46004C77.59 2.20004 77.87 2.06004 78.14 2.15004C78.4 2.24004 78.54 2.52004 78.45 2.78004C76.99 7.02004 79.47 21.58 79.5 21.73C79.55 22 79.36 22.26 79.09 22.31C79.06 22.31 79.03 22.31 79 22.31V22.32Z" fill="#730202"/>
<path d="M73.55 2.42002C73.55 2.42002 77.07 3.56002 80.05 1.92002C80.05 1.92002 79.29 -0.0199807 76.62 0.150019C73.95 0.320019 73.54 2.42002 73.54 2.42002H73.55Z" fill="#730202"/>
<path d="M126.49 119.68L69.61 95.73L47.03 158.13L103.92 182.08L126.49 119.68Z" fill="#730202"/>
<path d="M103.92 182.58C103.85 182.58 103.79 182.57 103.73 182.54L46.84 158.59C46.59 158.49 46.47 158.21 46.56 157.96L69.13 95.56C69.18 95.43 69.27 95.33 69.4 95.27C69.53 95.21 69.67 95.21 69.79 95.27L126.68 119.22C126.93 119.32 127.05 119.6 126.96 119.85L104.39 182.25C104.34 182.38 104.25 182.48 104.12 182.54C104.06 182.57 103.99 182.58 103.92 182.58ZM47.66 157.85L103.62 181.41L125.85 119.95L69.89 96.39L47.66 157.85Z" fill="#730202"/>
<path d="M126.49 119.68L172.71 106.99L115.82 83.04L69.61 95.73L126.49 119.68Z" fill="#F2E0D0"/>
<path d="M126.49 120.18C126.42 120.18 126.36 120.17 126.3 120.14L69.41 96.19C69.21 96.11 69.0899 95.91 69.0999 95.7C69.1099 95.49 69.2599 95.31 69.4699 95.25L115.68 82.56C115.79 82.53 115.9 82.54 116.01 82.58L172.9 106.53C173.1 106.61 173.22 106.81 173.21 107.02C173.2 107.23 173.05 107.41 172.84 107.47L126.63 120.16C126.63 120.16 126.54 120.18 126.5 120.18H126.49ZM71.1299 95.83L126.53 119.15L171.18 106.89L115.78 83.5701L71.1299 95.83Z" fill="#730202"/>
<path d="M103.92 182.08L150.13 169.39L172.71 106.99L126.49 119.68L103.92 182.08Z" fill="#F2E0D0"/>
<path d="M103.92 182.58C103.78 182.58 103.65 182.52 103.55 182.42C103.42 182.28 103.38 182.09 103.45 181.91L126.02 119.51C126.08 119.36 126.2 119.24 126.36 119.2L172.57 106.51C172.75 106.46 172.94 106.51 173.07 106.65C173.2 106.79 173.24 106.98 173.17 107.16L150.6 169.56C150.54 169.71 150.42 169.83 150.26 169.87L104.05 182.56C104.05 182.56 103.96 182.58 103.92 182.58ZM126.88 120.1L104.72 181.35L149.75 168.98L171.91 107.73L126.88 120.1Z" fill="#730202"/>
<path d="M76.98 133.34C76.98 133.34 69.02 146.15 71.11 146.94C73.21 147.73 76.15 151.32 79.25 154.12C82.34 156.91 88.75 159 92.69 157.78C92.69 157.78 94.3 157.35 94.24 156.27C94.17 155.19 90.6 154.9 88.27 153.95C90.38 154.43 93.88 155.01 96.79 154.47C96.79 154.47 98.82 154.08 98.98 152.99C99.13 152.05 94.25 151.26 92.97 151.07C96.19 151.51 100.02 151.31 102.21 149.7C102.21 149.7 103.35 148.29 102.08 147.35C100.81 146.41 97.63 147.51 94.72 146.98C101.29 147.19 104.49 144.29 103.7 143.13C102.78 141.76 98.47 142.48 93.95 141.76C89.43 141.04 87.39 139.03 87.39 139.03C94.41 137.56 92.86 133.55 90.15 133.89C87.44 134.24 81.7 135.2 76.97 133.33L76.98 133.34Z" fill="white"/>
<path d="M90.09 158.63C86.17 158.63 81.43 156.76 78.91 154.48C77.89 153.56 76.89 152.56 75.93 151.6C74.03 149.7 72.24 147.9 70.93 147.41C70.73 147.33 70.47 147.16 70.34 146.78C69.57 144.5 75.38 134.97 76.55 133.08C76.68 132.87 76.93 132.79 77.16 132.88C81.42 134.56 86.65 133.87 89.46 133.49L90.09 133.41C91.47 133.24 92.71 134.04 92.91 135.24C93.14 136.59 92.07 138.3 88.53 139.28C89.47 139.9 91.28 140.83 94.03 141.27C95.78 141.55 97.51 141.61 99.03 141.66C101.58 141.75 103.42 141.81 104.12 142.86C104.28 143.1 104.49 143.61 104.09 144.35C103.65 145.15 102.63 145.93 101.15 146.52C101.63 146.58 102.04 146.71 102.38 146.96C102.83 147.29 103.11 147.74 103.17 148.23C103.29 149.15 102.67 149.94 102.6 150.03C102.57 150.06 102.54 150.09 102.51 150.12C101.41 150.92 99.83 151.45 97.96 151.67C98.67 151.92 99.12 152.19 99.32 152.47C99.5 152.71 99.5 152.94 99.48 153.09C99.26 154.48 97.13 154.93 96.89 154.98C95.94 155.16 94.93 155.22 93.93 155.2C94.42 155.47 94.72 155.8 94.75 156.25C94.82 157.43 93.57 158.07 92.83 158.27C92 158.53 91.08 158.64 90.1 158.64L90.09 158.63ZM77.19 133.95C73.43 140.05 70.75 145.74 71.3 146.48C72.8 147.04 74.58 148.82 76.64 150.89C77.59 151.85 78.58 152.83 79.58 153.74C82.52 156.4 88.69 158.49 92.54 157.3C92.57 157.3 93.78 156.93 93.74 156.3C93.65 155.96 91.92 155.53 90.99 155.29C90 155.04 88.98 154.78 88.09 154.42C87.85 154.32 87.72 154.06 87.8 153.81C87.88 153.56 88.13 153.41 88.39 153.47C90.25 153.89 93.82 154.52 96.71 153.98C97.23 153.88 98.3 153.51 98.48 153C98.19 152.73 96.73 152.15 92.91 151.57C92.64 151.53 92.45 151.28 92.49 151C92.53 150.72 92.78 150.53 93.05 150.58C96.78 151.08 100.07 150.63 101.87 149.35C102 149.17 102.24 148.74 102.19 148.35C102.16 148.12 102.03 147.93 101.8 147.76C101.26 147.36 100.04 147.45 98.74 147.54C97.48 147.63 96.05 147.73 94.65 147.48C94.39 147.43 94.21 147.19 94.24 146.94C94.27 146.68 94.51 146.48 94.75 146.49C99.77 146.67 102.62 144.97 103.23 143.86C103.28 143.77 103.39 143.54 103.31 143.41C102.89 142.79 101.01 142.72 99.01 142.66C97.46 142.61 95.71 142.55 93.89 142.26C89.27 141.52 87.15 139.48 87.06 139.4C86.93 139.27 86.88 139.08 86.93 138.9C86.98 138.72 87.13 138.59 87.31 138.55C90.75 137.83 92.12 136.45 91.94 135.4C91.83 134.72 91.1 134.29 90.23 134.4L89.6 134.48C86.79 134.86 81.62 135.55 77.19 133.96V133.95Z" fill="#730202"/>
<path d="M94.7201 147.49C94.6201 147.49 94.5201 147.46 94.4401 147.41C94.2101 147.26 94.1501 146.95 94.3001 146.72C94.3801 146.6 94.49 146.53 94.62 146.51C94.9 146.45 95.1501 146.63 95.2101 146.9C95.2501 147.1 95.17 147.3 95 147.42C94.92 147.48 94.8201 147.5 94.7201 147.5V147.49Z" fill="#730202"/>
<path d="M92.97 151.57C92.97 151.57 92.93 151.57 92.9 151.57L92.59 151.53C91.24 151.33 90.01 151.02 89.03 150.64C88.77 150.54 88.64 150.25 88.74 149.99C88.84 149.73 89.13 149.6 89.39 149.7C90.29 150.05 91.47 150.34 92.73 150.53L93.03 150.57C93.3 150.61 93.5 150.86 93.46 151.13C93.43 151.38 93.21 151.57 92.96 151.57H92.97Z" fill="#730202"/>
<path d="M92.97 151.57C92.97 151.57 92.93 151.57 92.9 151.57L92.59 151.53C92.32 151.49 92.12 151.24 92.16 150.97C92.2 150.7 92.45 150.5 92.72 150.54L93.02 150.58C93.29 150.62 93.49 150.87 93.45 151.14C93.42 151.39 93.2 151.58 92.95 151.58L92.97 151.57Z" fill="#730202"/>
<path d="M88.27 154.45C88.21 154.45 88.16 154.45 88.11 154.42C86.98 154.16 86.26 153.94 86.23 153.93C85.97 153.85 85.82 153.57 85.9 153.31C85.98 153.05 86.26 152.89 86.52 152.98C86.52 152.98 87.25 153.21 88.37 153.46C88.56 153.5 88.72 153.65 88.76 153.85C88.81 154.12 88.64 154.38 88.37 154.44C88.34 154.44 88.3 154.44 88.27 154.44V154.45Z" fill="#730202"/>
<path d="M88.2701 154.45C88.1701 154.45 88.0701 154.42 87.9901 154.36C87.8801 154.29 87.8001 154.18 87.7701 154.04C87.7201 153.77 87.8901 153.51 88.1601 153.45C88.4401 153.39 88.7001 153.58 88.7501 153.85C88.8001 154.12 88.6301 154.38 88.3601 154.44C88.3301 154.44 88.2901 154.44 88.2601 154.44L88.2701 154.45Z" fill="#730202"/>
<path d="M94.72 147.49C94.72 147.49 94.69 147.49 94.68 147.49C93.37 147.45 92.01 147.29 90.64 147.02C90.37 146.97 90.19 146.7 90.25 146.43C90.3 146.16 90.57 145.98 90.84 146.04C92.16 146.3 93.46 146.45 94.71 146.49C94.94 146.49 95.17 146.65 95.22 146.89C95.26 147.09 95.18 147.29 95.01 147.41C94.93 147.47 94.83 147.49 94.73 147.49H94.72Z" fill="#730202"/>
<path d="M48.15 74.85C54.94 81.38 45.27 117.59 45.27 117.59L76.87 130.01C78.85 130.79 80.05 132.8 79.81 134.92C79.43 138.3 78.29 143.58 75.03 149.02C73.98 150.76 71.91 151.61 69.94 151.14C61.21 149.05 36.99 143.18 29.99 140.77" fill="#F23005"/>
<path d="M71.04 151.78C70.63 151.78 70.22 151.73 69.81 151.63C60.1 149.3 36.75 143.64 29.82 141.25C29.56 141.16 29.42 140.88 29.51 140.61C29.6 140.35 29.88 140.21 30.15 140.3C37.24 142.74 62.48 148.84 70.05 150.65C71.84 151.08 73.66 150.32 74.6 148.76C77.8 143.43 78.93 138.26 79.32 134.86C79.53 132.97 78.46 131.16 76.7 130.47L45.1 118.05C44.86 117.96 44.73 117.7 44.8 117.46C44.82 117.37 47.23 108.31 48.78 98.58C50.8 85.84 50.47 77.76 47.82 75.21C47.62 75.02 47.61 74.7 47.81 74.5C48 74.3 48.32 74.3 48.52 74.49C55.11 80.83 47.01 112.97 45.89 117.29L77.07 129.54C79.25 130.4 80.59 132.63 80.32 134.97C79.92 138.47 78.76 143.79 75.47 149.27C74.52 150.85 72.84 151.77 71.06 151.77L71.04 151.78Z" fill="#730202"/>
<path d="M139.03 144.66L128.77 156.46C128.77 156.46 127.58 155.22 126.8 156.59C126.21 157.62 127.57 158.75 128.43 158.64C128.43 158.64 128.43 161.39 129.69 160.83C130.95 160.27 130 158.09 130 158.09L140.21 146.35L139.03 144.66Z" fill="white"/>
<path d="M129.36 161.4C129.16 161.4 128.97 161.34 128.8 161.23C128.17 160.83 127.99 159.77 127.94 159.1C127.38 158.98 126.81 158.6 126.47 158.09C126.09 157.52 126.05 156.88 126.36 156.34C126.74 155.68 127.21 155.5 127.54 155.45C127.99 155.39 128.41 155.58 128.7 155.76L138.65 144.32C138.75 144.2 138.89 144.13 139.05 144.15C139.2 144.15 139.34 144.24 139.43 144.36L140.61 146.05C140.74 146.24 140.73 146.49 140.58 146.66L130.56 158.17C130.91 159.18 131.09 160.72 129.88 161.26C129.7 161.34 129.53 161.38 129.36 161.38V161.4ZM128.42 158.14C128.54 158.14 128.66 158.18 128.75 158.26C128.86 158.35 128.92 158.49 128.92 158.64C128.92 159.34 129.1 160.25 129.34 160.4C129.37 160.42 129.44 160.4 129.47 160.37C130.23 160.03 129.54 158.3 129.53 158.28C129.45 158.1 129.49 157.9 129.61 157.76L139.57 146.31L138.98 145.47L129.14 156.78C129.05 156.89 128.92 156.95 128.77 156.95C128.64 156.96 128.49 156.9 128.4 156.8C128.3 156.7 127.94 156.42 127.66 156.44C127.51 156.46 127.36 156.59 127.22 156.83C127.1 157.04 127.12 157.28 127.29 157.53C127.55 157.92 128.06 158.18 128.35 158.14C128.37 158.14 128.39 158.14 128.42 158.14Z" fill="#730202"/>
<path d="M148.98 135.36C154.14 142.75 141.49 160.35 135.17 151.23C128.85 142.11 142.9 126.65 148.98 135.36Z" fill="#F23005"/>
<path d="M139.47 154.3C137.64 154.3 136.02 153.35 134.75 151.52C131.61 146.99 132.81 138.69 139.54 134.01C143.32 131.38 147.09 131.79 149.39 135.08C151.21 137.68 151.1 141.77 149.11 146.01C147.28 149.9 143.73 153.96 139.92 154.28C139.77 154.29 139.62 154.3 139.47 154.3ZM144.36 133.29C143.04 133.29 141.59 133.8 140.11 134.83C135.68 137.91 131.82 145.53 135.58 150.95C136.75 152.64 138.18 153.42 139.84 153.28C142.75 153.04 146.19 149.87 148.21 145.58C150.05 141.67 150.18 137.96 148.57 135.65C147.48 134.08 146.02 133.29 144.37 133.29H144.36Z" fill="#730202"/>
<path d="M110.77 113.06L104.85 125.85L110.77 126.92L114.28 130.03L120.19 117.03L110.77 113.06Z" fill="#F23005"/>
<path d="M114.28 130.53C114.16 130.53 114.04 130.49 113.95 130.4L110.54 127.38L104.76 126.33C104.61 126.3 104.48 126.21 104.41 126.07C104.34 125.93 104.34 125.77 104.41 125.63L110.33 112.85C110.44 112.6 110.73 112.5 110.98 112.6L120.4 116.57C120.52 116.62 120.62 116.72 120.67 116.85C120.72 116.98 120.72 117.12 120.66 117.24L114.75 130.24C114.68 130.38 114.55 130.49 114.4 130.52C114.37 130.52 114.33 130.53 114.3 130.53H114.28ZM105.57 125.47L110.85 126.43C110.94 126.45 111.02 126.49 111.09 126.55L114.1 129.21L119.52 117.29L111.02 113.71L105.58 125.47H105.57Z" fill="#730202"/>
<path d="M4.27001 313.56L0.830014 339.54C0.590014 341.36 1.86001 343.03 3.68001 343.28L51.59 349.96C53.6 350.24 55.39 348.68 55.39 346.66V345.52C55.39 345.52 55.8 322.62 32.22 317.83C32.22 317.83 20 319.46 4.28001 313.55L4.27001 313.56Z" fill="#424D1D"/>
<path d="M54.79 345.44C54.79 345.44 54.74 345.44 54.72 345.44L1.59998 338.03C1.32998 337.99 1.13998 337.74 1.16998 337.47C1.19998 337.2 1.45999 337.01 1.72999 337.04L54.85 344.45C55.12 344.49 55.31 344.74 55.28 345.01C55.25 345.26 55.03 345.44 54.79 345.44Z" fill="#730202"/>
<path d="M14.5 339.82C14.5 339.82 14.48 339.82 14.47 339.82C14.19 339.8 13.99 339.56 14 339.29C14.03 338.83 14.57 328.13 2.62001 325.84C2.35001 325.79 2.17001 325.53 2.22001 325.26C2.27001 324.99 2.53001 324.81 2.81001 324.86C9.50001 326.14 12.47 330.02 13.77 333.04C15.18 336.31 15.01 339.23 15 339.36C14.98 339.62 14.76 339.83 14.5 339.83V339.82Z" fill="#730202"/>
<path d="M30.52 325.84C30.36 325.84 30.2 325.76 30.1 325.61C29.95 325.38 30.01 325.07 30.25 324.92L42.63 316.84C42.86 316.69 43.17 316.76 43.32 316.99C43.47 317.22 43.41 317.53 43.17 317.68L30.79 325.76C30.71 325.81 30.61 325.84 30.52 325.84Z" fill="#730202"/>
<path d="M35.69 328.68C35.53 328.68 35.37 328.6 35.27 328.45C35.12 328.22 35.18 327.91 35.42 327.76L47.8 319.68C48.03 319.53 48.34 319.6 48.49 319.83C48.64 320.06 48.58 320.37 48.34 320.52L35.96 328.6C35.88 328.65 35.78 328.68 35.69 328.68Z" fill="#730202"/>
<path d="M97.8101 311.42L105.89 336.35C106.46 338.09 108.32 339.06 110.07 338.5L156.19 323.92C158.12 323.31 159.07 321.13 158.2 319.3L157.71 318.27C157.71 318.27 148.23 297.42 124.88 303.25C124.88 303.25 114.55 309.98 97.8201 311.41L97.8101 311.42Z" fill="#F23005"/>
<path d="M105.78 334.67C105.57 334.67 105.37 334.53 105.3 334.32C105.22 334.06 105.36 333.78 105.63 333.69L156.77 317.52C157.04 317.44 157.31 317.58 157.4 317.85C157.48 318.11 157.34 318.39 157.07 318.48L105.93 334.65C105.88 334.67 105.83 334.67 105.78 334.67Z" fill="#730202"/>
<path d="M118.13 330.76C117.93 330.76 117.74 330.64 117.67 330.45C117.5 330.03 113.38 320.13 101.61 323.21C101.34 323.28 101.07 323.12 101 322.85C100.93 322.58 101.09 322.31 101.36 322.24C107.96 320.51 112.3 322.74 114.78 324.91C117.46 327.25 118.56 329.97 118.61 330.08C118.71 330.34 118.59 330.63 118.33 330.73C118.27 330.75 118.21 330.77 118.14 330.77L118.13 330.76Z" fill="#730202"/>
<path d="M126.57 311.25C126.48 311.25 126.39 311.23 126.31 311.18C126.07 311.04 126 310.73 126.14 310.49L133.83 297.87C133.97 297.63 134.28 297.56 134.52 297.7C134.76 297.84 134.83 298.15 134.69 298.39L127 311.01C126.91 311.17 126.74 311.25 126.57 311.25Z" fill="#730202"/>
<path d="M132.46 311.59C132.37 311.59 132.28 311.57 132.2 311.52C131.96 311.38 131.89 311.07 132.03 310.83L139.72 298.21C139.86 297.97 140.17 297.9 140.41 298.04C140.65 298.18 140.72 298.49 140.58 298.73L132.89 311.35C132.8 311.51 132.63 311.59 132.46 311.59Z" fill="#730202"/>
<path d="M170.09 268.44H215.47V191.08H170.09V268.44Z" fill="#730202"/>
<path d="M215.47 268.94H170.09C169.81 268.94 169.59 268.72 169.59 268.44V191.08C169.59 190.8 169.81 190.58 170.09 190.58H215.47C215.75 190.58 215.97 190.8 215.97 191.08V268.44C215.97 268.72 215.75 268.94 215.47 268.94ZM170.59 267.94H214.97V191.58H170.59V267.94Z" fill="#730202"/>
<path d="M170.09 191.08H89.22V268.44H170.09V191.08Z" fill="#F2E0D0"/>
<path d="M170.09 268.94H89.22C88.94 268.94 88.72 268.72 88.72 268.44V191.08C88.72 190.8 88.94 190.58 89.22 190.58H170.09C170.37 190.58 170.59 190.8 170.59 191.08V268.44C170.59 268.72 170.37 268.94 170.09 268.94ZM89.72 267.94H169.59V191.58H89.72V267.94Z" fill="#730202"/>
<path d="M133 226.93L117.64 240.25C117.64 240.25 115.86 238.74 114.69 240.31C113.81 241.49 115.84 242.88 117.13 242.79C117.13 242.79 117.13 246.01 119.01 245.41C120.89 244.81 119.48 242.22 119.48 242.22L134.76 228.96L133 226.93Z" fill="#F2E0D0"/>
<path d="M118.58 245.99C118.19 245.99 117.89 245.85 117.69 245.7C116.94 245.15 116.72 243.95 116.66 243.27C115.69 243.14 114.62 242.49 114.2 241.71C113.88 241.13 113.92 240.53 114.3 240.01C114.7 239.48 115.19 239.18 115.78 239.11C116.52 239.03 117.22 239.36 117.62 239.61L132.68 226.55C132.89 226.37 133.2 226.39 133.39 226.6L135.15 228.63C135.33 228.84 135.31 229.15 135.1 229.34L120.1 242.35C120.34 242.91 120.69 243.98 120.34 244.85C120.14 245.35 119.73 245.71 119.17 245.89C118.95 245.96 118.76 245.99 118.58 245.99ZM117.13 242.29C117.26 242.29 117.38 242.34 117.47 242.42C117.57 242.51 117.63 242.65 117.63 242.78C117.63 243.41 117.81 244.55 118.27 244.88C118.36 244.95 118.53 245.03 118.85 244.92C119.23 244.8 119.34 244.6 119.4 244.46C119.65 243.84 119.21 242.77 119.03 242.44C118.92 242.23 118.97 241.98 119.14 241.82L134.04 228.89L132.93 227.61L117.95 240.6C117.76 240.76 117.49 240.76 117.3 240.6C117.1 240.43 116.44 240 115.86 240.07C115.56 240.11 115.3 240.27 115.07 240.57C114.97 240.7 114.88 240.89 115.04 241.19C115.35 241.77 116.37 242.3 117.07 242.25C117.08 242.25 117.09 242.25 117.11 242.25L117.13 242.29Z" fill="#730202"/>
<path d="M147.89 216.53C155.61 225.43 136.69 245.44 127.23 234.45C117.7 223.38 138.8 206.04 147.89 216.53Z" fill="#F23005"/>
<path d="M133.96 238.16C131.21 238.16 128.78 237.01 126.85 234.77C121.82 228.94 125 221.56 130.07 217.17C135.48 212.49 143.46 210.66 148.27 216.2C150.32 218.57 150.75 221.9 149.48 225.57C147.44 231.46 141.51 236.91 135.98 237.96C135.29 238.09 134.61 238.16 133.95 238.16H133.96ZM140.69 213.79C137.27 213.79 133.61 215.44 130.73 217.93C126.02 222 123.03 228.81 127.61 234.12C129.75 236.6 132.58 237.6 135.8 236.98C141.01 235.99 146.6 230.83 148.54 225.24C149.69 221.92 149.33 218.94 147.52 216.85C145.65 214.7 143.24 213.79 140.69 213.79Z" fill="#730202"/>
<path d="M197.52 191.08V202.19L203.7 199.92L208.76 202.19V191.08H197.52Z" fill="#F23005"/>
<path d="M197.52 202.69C197.42 202.69 197.32 202.66 197.23 202.6C197.1 202.51 197.02 202.35 197.02 202.19V191.09C197.02 190.81 197.24 190.59 197.52 190.59H208.76C209.04 190.59 209.26 190.81 209.26 191.09V202.19C209.26 202.36 209.17 202.52 209.03 202.61C208.89 202.7 208.71 202.71 208.55 202.65L203.68 200.47L197.69 202.67C197.63 202.69 197.58 202.7 197.52 202.7V202.69ZM198.02 191.58V201.47L203.53 199.45C203.65 199.41 203.79 199.41 203.91 199.46L208.26 201.41V191.58H198.02Z" fill="#730202"/>
<path d="M152.51 345.79H197.89V268.43H152.51V345.79Z" fill="#730202"/>
<path d="M197.89 346.29H152.51C152.23 346.29 152.01 346.07 152.01 345.79V268.44C152.01 268.16 152.23 267.94 152.51 267.94H197.89C198.17 267.94 198.39 268.16 198.39 268.44V345.79C198.39 346.07 198.17 346.29 197.89 346.29ZM153.01 345.29H197.39V268.94H153.01V345.29Z" fill="#730202"/>
<path d="M152.51 268.44H71.64V345.8H152.51V268.44Z" fill="#F2E0D0"/>
<path d="M152.51 346.29H71.64C71.36 346.29 71.14 346.07 71.14 345.79V268.44C71.14 268.16 71.36 267.94 71.64 267.94H152.51C152.79 267.94 153.01 268.16 153.01 268.44V345.79C153.01 346.07 152.79 346.29 152.51 346.29ZM72.14 345.29H152.01V268.94H72.14V345.29Z" fill="#730202"/>
<path d="M115.42 304.29L100.06 317.61C100.06 317.61 98.2799 316.1 97.1099 317.67C96.2299 318.85 98.26 320.24 99.55 320.15C99.55 320.15 99.5499 323.37 101.43 322.77C103.31 322.17 101.9 319.58 101.9 319.58L117.18 306.32L115.42 304.29Z" fill="#F2E0D0"/>
<path d="M101 323.34C100.61 323.34 100.31 323.2 100.11 323.05C99.36 322.5 99.14 321.3 99.08 320.62C98.11 320.49 97.04 319.84 96.62 319.06C96.3 318.48 96.34 317.88 96.72 317.36C97.12 316.83 97.61 316.53 98.2 316.46C98.95 316.38 99.64 316.71 100.04 316.96L115.1 303.9C115.31 303.72 115.62 303.74 115.81 303.95L117.57 305.98C117.66 306.08 117.7 306.21 117.69 306.34C117.69 306.47 117.62 306.6 117.52 306.68L102.52 319.69C102.76 320.25 103.11 321.32 102.76 322.19C102.56 322.69 102.15 323.05 101.59 323.23C101.37 323.3 101.18 323.33 101 323.33V323.34ZM99.55 319.64C99.68 319.64 99.8 319.69 99.89 319.77C99.99 319.86 100.05 320 100.05 320.13C100.05 320.76 100.23 321.9 100.69 322.23C100.78 322.3 100.95 322.38 101.27 322.27C101.65 322.15 101.76 321.95 101.82 321.81C102.07 321.19 101.64 320.14 101.45 319.79C101.34 319.58 101.39 319.33 101.56 319.17L116.46 306.24L115.35 304.96L100.37 317.95C100.18 318.11 99.91 318.11 99.72 317.95C99.52 317.78 98.87 317.35 98.28 317.42C97.98 317.46 97.72 317.62 97.49 317.92C97.39 318.05 97.3 318.24 97.46 318.54C97.77 319.12 98.79 319.64 99.48 319.6C99.49 319.6 99.5 319.6 99.52 319.6L99.55 319.64Z" fill="#730202"/>
<path d="M130.31 293.88C138.03 302.78 119.11 322.79 109.65 311.8C100.12 300.73 121.22 283.39 130.31 293.88Z" fill="#F23005"/>
<path d="M116.38 315.52C113.63 315.52 111.2 314.37 109.27 312.13C104.24 306.3 107.42 298.92 112.49 294.53C117.9 289.86 125.88 288.02 130.69 293.56C132.74 295.93 133.17 299.26 131.9 302.93C129.86 308.82 123.93 314.27 118.41 315.32C117.72 315.45 117.04 315.52 116.38 315.52ZM123.11 291.15C119.69 291.15 116.03 292.79 113.15 295.29C108.44 299.36 105.45 306.17 110.03 311.48C112.17 313.97 115 314.95 118.22 314.34C123.42 313.35 129.02 308.19 130.96 302.6C132.11 299.28 131.75 296.3 129.94 294.21C128.07 292.06 125.66 291.15 123.11 291.15Z" fill="#730202"/>
<path d="M179.94 268.44V279.54L186.12 277.28L191.18 279.54V268.44H179.94Z" fill="#F23005"/>
<path d="M179.94 280.04C179.84 280.04 179.74 280.01 179.65 279.95C179.52 279.86 179.44 279.7 179.44 279.54V268.44C179.44 268.16 179.66 267.94 179.94 267.94H191.18C191.46 267.94 191.68 268.16 191.68 268.44V279.54C191.68 279.71 191.59 279.87 191.45 279.96C191.31 280.05 191.13 280.07 190.97 280L186.1 277.82L180.11 280.02C180.05 280.04 180 280.05 179.94 280.05V280.04ZM180.44 268.94V278.83L185.95 276.81C186.07 276.77 186.21 276.77 186.33 276.82L190.68 278.77V268.94H180.44Z" fill="#730202"/>
<path d="M219.88 306.31V340.14C219.88 343.28 217.33 345.79 214.2 345.79H192.09C188.95 345.79 186.41 343.27 186.41 340.14V306.31C186.41 303.35 187.68 300.54 189.87 298.55L193.04 295.74C195.56 293.49 196.98 290.26 196.98 286.89V275.14H209.32V286.89C209.32 290.26 210.74 293.49 213.26 295.74L216.43 298.55C218.62 300.53 219.89 303.35 219.89 306.31H219.88Z" fill="white"/>
<path d="M214.19 346.29H192.08C188.67 346.29 185.9 343.53 185.9 340.14V306.31C185.9 303.23 187.22 300.27 189.53 298.18L192.7 295.36C195.09 293.22 196.47 290.13 196.47 286.88V275.13C196.47 274.85 196.69 274.63 196.97 274.63H209.31C209.59 274.63 209.81 274.85 209.81 275.13V286.88C209.81 290.13 211.18 293.21 213.58 295.36L216.75 298.17C219.06 300.26 220.38 303.22 220.38 306.3V340.13C220.38 343.52 217.61 346.28 214.2 346.28L214.19 346.29ZM197.47 275.64V286.89C197.47 290.42 195.97 293.78 193.37 296.11L190.2 298.92C188.11 300.81 186.91 303.5 186.91 306.3V340.13C186.91 342.97 189.23 345.28 192.09 345.28H214.2C217.06 345.28 219.38 342.97 219.38 340.13V306.3C219.38 303.5 218.18 300.81 216.08 298.92L212.92 296.11C210.31 293.78 208.82 290.42 208.82 286.89V275.64H197.48H197.47Z" fill="#730202"/>
<path d="M198.24 265.9H208.03C209.75 265.9 211.14 267.29 211.14 269.01V275.14H195.13V269.01C195.13 267.29 196.52 265.9 198.24 265.9Z" fill="#424D1D"/>
<path d="M211.14 275.64H195.13C194.85 275.64 194.63 275.42 194.63 275.14V269.01C194.63 267.02 196.25 265.4 198.24 265.4H208.03C210.02 265.4 211.64 267.02 211.64 269.01V275.14C211.64 275.42 211.42 275.64 211.14 275.64ZM195.63 274.64H210.64V269.01C210.64 267.57 209.47 266.4 208.03 266.4H198.24C196.8 266.4 195.63 267.57 195.63 269.01V274.64Z" fill="#730202"/>
<path d="M247.09 306.31V340.14C247.09 343.28 244.54 345.79 241.41 345.79H219.3C216.16 345.79 213.62 343.27 213.62 340.14V306.31C213.62 303.35 214.89 300.54 217.08 298.55L220.25 295.74C222.77 293.49 224.19 290.26 224.19 286.89V275.14H236.53V286.89C236.53 290.26 237.95 293.49 240.47 295.74L243.64 298.55C245.83 300.53 247.1 303.35 247.1 306.31H247.09Z" fill="white"/>
<path d="M241.4 346.29H219.29C215.88 346.29 213.11 343.53 213.11 340.14V306.31C213.11 303.23 214.43 300.27 216.74 298.18L219.91 295.36C222.3 293.22 223.68 290.13 223.68 286.88V275.13C223.68 274.85 223.9 274.63 224.18 274.63H236.52C236.8 274.63 237.02 274.85 237.02 275.13V286.88C237.02 290.13 238.39 293.21 240.79 295.36L243.96 298.17C246.27 300.26 247.59 303.22 247.59 306.3V340.13C247.59 343.52 244.82 346.28 241.41 346.28L241.4 346.29ZM224.68 275.64V286.89C224.68 290.42 223.18 293.78 220.58 296.11L217.41 298.92C215.32 300.81 214.12 303.5 214.12 306.3V340.13C214.12 342.97 216.44 345.28 219.3 345.28H241.41C244.27 345.28 246.59 342.97 246.59 340.13V306.3C246.59 303.51 245.39 300.81 243.29 298.92L240.13 296.11C237.52 293.78 236.03 290.42 236.03 286.89V275.64H224.69H224.68Z" fill="#730202"/>
<path d="M225.45 265.9H235.24C236.96 265.9 238.35 267.29 238.35 269.01V275.14H222.34V269.01C222.34 267.29 223.73 265.9 225.45 265.9Z" fill="#424D1D"/>
<path d="M238.36 275.64H222.35C222.07 275.64 221.85 275.42 221.85 275.14V269.01C221.85 267.02 223.47 265.4 225.46 265.4H235.25C237.24 265.4 238.86 267.02 238.86 269.01V275.14C238.86 275.42 238.64 275.64 238.36 275.64ZM222.84 274.64H237.85V269.01C237.85 267.57 236.68 266.4 235.24 266.4H225.45C224.01 266.4 222.84 267.57 222.84 269.01V274.64Z" fill="#730202"/>
<path d="M274.3 306.31V340.14C274.3 343.28 271.75 345.79 268.62 345.79H246.51C243.37 345.79 240.83 343.27 240.83 340.14V306.31C240.83 303.35 242.1 300.54 244.29 298.55L247.46 295.74C249.98 293.49 251.4 290.26 251.4 286.89V275.14H263.74V286.89C263.74 290.26 265.16 293.49 267.68 295.74L270.85 298.55C273.04 300.53 274.31 303.35 274.31 306.31H274.3Z" fill="white"/>
<path d="M268.62 346.29H246.51C243.1 346.29 240.33 343.53 240.33 340.14V306.31C240.33 303.23 241.65 300.27 243.96 298.18L247.13 295.36C249.52 293.22 250.9 290.13 250.9 286.88V275.13C250.9 274.85 251.12 274.63 251.4 274.63H263.74C264.02 274.63 264.24 274.85 264.24 275.13V286.88C264.24 290.13 265.61 293.21 268.01 295.36L271.18 298.17C273.49 300.26 274.81 303.22 274.81 306.3V340.13C274.81 343.52 272.04 346.28 268.63 346.28L268.62 346.29ZM251.89 275.64V286.89C251.89 290.42 250.39 293.78 247.79 296.11L244.62 298.92C242.53 300.81 241.32 303.51 241.32 306.3V340.13C241.32 342.97 243.65 345.28 246.5 345.28H268.61C271.47 345.28 273.79 342.97 273.79 340.13V306.3C273.79 303.51 272.59 300.81 270.49 298.92L267.33 296.11C264.72 293.78 263.23 290.42 263.23 286.89V275.64H251.89Z" fill="#730202"/>
<path d="M252.67 265.9H262.46C264.18 265.9 265.57 267.29 265.57 269.01V275.14H249.56V269.01C249.56 267.29 250.95 265.9 252.67 265.9Z" fill="#424D1D"/>
<path d="M265.57 275.64H249.56C249.28 275.64 249.06 275.42 249.06 275.14V269.01C249.06 267.02 250.68 265.4 252.67 265.4H262.46C264.45 265.4 266.07 267.02 266.07 269.01V275.14C266.07 275.42 265.85 275.64 265.57 275.64ZM250.06 274.64H265.07V269.01C265.07 267.57 263.9 266.4 262.46 266.4H252.67C251.23 266.4 250.06 267.57 250.06 269.01V274.64Z" fill="#730202"/>
<path d="M394.04 325.55C397.89 330.19 409.13 327.36 411.84 322.63C411.84 322.63 421.38 334.36 422.87 340.4C424.36 346.44 415.78 353.71 405.36 345.57C397.21 339.2 392.97 334.49 391.51 332.74C391.13 332.28 390.95 331.69 391.03 331.1L394.04 325.55Z" fill="#424D1D"/>
<path d="M415.75 346.03C414.99 346.03 414.17 345.98 413.26 345.88C405.33 344.96 395.7 334.12 391.93 329.5C391.76 329.29 391.79 328.97 392 328.8C392.21 328.63 392.53 328.66 392.7 328.87C395.58 332.4 405.59 343.99 413.37 344.89C418.25 345.46 420.51 344.22 421.43 343.44C421.64 343.26 421.96 343.29 422.14 343.49C422.32 343.7 422.29 344.02 422.08 344.2C421.04 345.09 419.14 346.03 415.75 346.03Z" fill="#732A09"/>
<path d="M394.83 332.63C394.72 332.63 394.62 332.6 394.52 332.53C394.3 332.36 394.26 332.05 394.43 331.83C395.53 330.4 395.32 328.12 395.32 328.1C395.29 327.83 395.49 327.58 395.77 327.55C396.05 327.52 396.29 327.72 396.32 328C396.33 328.11 396.58 330.69 395.23 332.44C395.13 332.57 394.98 332.63 394.83 332.63Z" fill="#732A09"/>
<path d="M407.34 331.23C407.18 331.23 407.02 331.15 406.92 331C406.77 330.77 406.83 330.46 407.07 330.31C411.77 327.25 418.36 326.8 418.64 326.78C418.91 326.74 419.15 326.97 419.17 327.25C419.19 327.53 418.98 327.76 418.7 327.78C418.63 327.78 412.09 328.23 407.61 331.15C407.53 331.2 407.43 331.23 407.34 331.23Z" fill="#732A09"/>
<path d="M409.9 334.67C409.74 334.67 409.58 334.59 409.48 334.44C409.33 334.21 409.39 333.9 409.63 333.75C414.33 330.69 420.92 330.24 421.2 330.22C421.45 330.2 421.71 330.41 421.73 330.69C421.75 330.97 421.54 331.2 421.26 331.22C421.19 331.22 414.65 331.67 410.17 334.59C410.09 334.64 409.99 334.67 409.9 334.67Z" fill="#732A09"/>
<path d="M403.01 261.81L411.29 315.63C411.59 317.56 410.6 319.44 408.86 320.3C404.46 322.48 395.55 325.63 385.48 321.96L378.87 263.47L403.02 261.8L403.01 261.81Z" fill="white"/>
<path d="M395 324.15C391.98 324.15 388.71 323.68 385.31 322.44C385.13 322.38 385.01 322.22 384.98 322.03L378.37 263.54C378.35 263.41 378.4 263.27 378.48 263.16C378.57 263.06 378.69 262.99 378.83 262.98L402.98 261.31C403.22 261.28 403.47 261.48 403.51 261.73L411.79 315.55C412.12 317.69 411.03 319.78 409.08 320.75C406.09 322.24 401.06 324.15 395 324.15ZM385.94 321.6C395.71 325.03 404.34 321.99 408.64 319.85C410.2 319.08 411.07 317.41 410.8 315.7L402.59 262.34L379.42 263.94L385.93 321.6H385.94Z" fill="#732A09"/>
<path d="M358.9 321.02C355.05 325.66 343.81 322.83 341.1 318.1C341.1 318.1 331.56 329.83 330.07 335.87C328.58 341.91 337.16 349.18 347.58 341.04C355.73 334.67 359.97 329.96 361.43 328.21C361.81 327.75 361.99 327.16 361.91 326.57L358.9 321.02Z" fill="#424D1D"/>
<path d="M337.2 341.5C333.81 341.5 331.91 340.55 330.87 339.67C330.66 339.49 330.64 339.18 330.81 338.97C330.99 338.76 331.31 338.73 331.52 338.91C332.44 339.69 334.71 340.93 339.58 340.36C347.36 339.46 357.37 327.87 360.25 324.34C360.42 324.13 360.74 324.09 360.95 324.27C361.16 324.44 361.2 324.76 361.02 324.97C357.25 329.59 347.62 340.43 339.69 341.35C338.78 341.45 337.95 341.5 337.2 341.5Z" fill="#732A09"/>
<path d="M358.12 328.1C357.97 328.1 357.82 328.03 357.72 327.91C356.37 326.16 356.62 323.58 356.63 323.47C356.66 323.2 356.9 322.99 357.18 323.02C357.45 323.05 357.65 323.29 357.63 323.57C357.63 323.59 357.41 325.87 358.52 327.3C358.69 327.52 358.65 327.83 358.43 328C358.34 328.07 358.23 328.1 358.12 328.1Z" fill="#732A09"/>
<path d="M345.61 326.69C345.52 326.69 345.42 326.66 345.34 326.61C340.86 323.69 334.32 323.25 334.25 323.24C333.97 323.22 333.76 322.99 333.78 322.71C333.8 322.43 334.05 322.21 334.31 322.24C334.59 322.26 341.18 322.71 345.88 325.77C346.11 325.92 346.18 326.23 346.03 326.46C345.93 326.61 345.77 326.69 345.61 326.69Z" fill="#732A09"/>
<path d="M343.05 330.14C342.96 330.14 342.86 330.11 342.78 330.06C338.3 327.14 331.76 326.69 331.69 326.69C331.41 326.67 331.21 326.44 331.22 326.16C331.24 325.88 331.48 325.65 331.75 325.69C332.03 325.71 338.62 326.16 343.32 329.22C343.55 329.37 343.62 329.68 343.47 329.91C343.37 330.06 343.21 330.14 343.05 330.14Z" fill="#732A09"/>
<path d="M349.93 257.27L341.65 311.09C341.35 313.02 342.34 314.9 344.08 315.76C348.48 317.94 357.39 321.09 367.46 317.42L374.07 258.93L349.92 257.26L349.93 257.27Z" fill="white"/>
<path d="M357.94 319.61C351.88 319.61 346.85 317.7 343.86 316.21C341.91 315.24 340.82 313.15 341.15 311.01L349.43 257.19C349.47 256.93 349.7 256.74 349.96 256.77L374.11 258.44C374.25 258.44 374.37 258.51 374.46 258.62C374.55 258.73 374.59 258.86 374.57 259L367.96 317.49C367.94 317.68 367.81 317.84 367.63 317.9C364.23 319.14 360.95 319.61 357.93 319.61H357.94ZM350.35 257.8L342.14 311.16C341.88 312.87 342.75 314.54 344.3 315.31C348.6 317.45 357.23 320.49 367 317.06L373.51 259.4L350.34 257.8H350.35Z" fill="#732A09"/>
<path d="M296.3 184.93L293.13 322.73C293.08 324.95 294.46 326.95 296.56 327.68C301.02 329.24 309.85 330.97 323.58 328.01C325.87 327.52 327.54 325.55 327.64 323.21L332.23 213.28C332.23 213.28 339.57 239.88 347.13 270.52C353.02 294.39 357.33 315.12 358.95 323.12C359.4 325.37 361.23 327.07 363.51 327.36C368.83 328.03 379.16 328.23 391.18 322.71C393.41 321.68 394.68 319.27 394.23 316.86L369.85 184.93H296.3Z" fill="white"/>
<path d="M309.55 330.11C303.29 330.11 298.93 329.03 296.4 328.15C294.09 327.35 292.58 325.16 292.64 322.72L295.81 184.92C295.81 184.65 296.04 184.43 296.31 184.43H369.86C370.1 184.43 370.31 184.6 370.35 184.84L394.73 316.77C395.22 319.41 393.85 322.04 391.4 323.17C379.17 328.78 368.65 328.52 363.46 327.86C360.98 327.55 358.98 325.68 358.48 323.22C356.89 315.37 352.56 294.54 346.67 270.64C340.68 246.36 334.77 224.41 332.63 216.51L328.18 323.23C328.07 325.79 326.24 327.95 323.72 328.5C318.24 329.68 313.53 330.11 309.57 330.11H309.55ZM296.79 185.43L293.64 322.74C293.59 324.75 294.84 326.54 296.73 327.2C300.75 328.6 309.58 330.51 323.48 327.51C325.55 327.06 327.06 325.28 327.15 323.18L331.74 213.25C331.75 213 331.94 212.8 332.18 212.77C332.42 212.75 332.65 212.9 332.72 213.13C332.79 213.4 340.15 240.08 347.62 270.38C353.52 294.3 357.85 315.15 359.44 323C359.85 325.04 361.51 326.58 363.57 326.85C368.65 327.49 378.97 327.75 390.97 322.24C393 321.31 394.14 319.12 393.74 316.93L369.43 185.41H296.79V185.43Z" fill="#732A09"/>
<path d="M332.24 213.78C332.12 213.78 331.99 213.73 331.89 213.64L318.29 200.49C318.09 200.3 318.09 199.98 318.28 199.78C318.47 199.58 318.79 199.58 318.99 199.77L332.59 212.92C332.79 213.11 332.79 213.43 332.6 213.63C332.5 213.73 332.37 213.78 332.24 213.78Z" fill="#732A09"/>
<path d="M326.09 329.62L327.08 352.48C327.15 354.08 325.91 355.43 324.32 355.51L282.15 357.63C280.38 357.72 278.95 356.23 279.1 354.46L279.19 353.47C279.19 353.47 280.6 333.53 301.48 331.18C301.48 331.18 311.98 333.54 326.11 329.61L326.09 329.62Z" fill="#424D1D"/>
<path d="M279.73 353.51C279.47 353.51 279.24 353.3 279.23 353.04C279.22 352.76 279.43 352.53 279.7 352.52L326.46 350.17C326.73 350.13 326.97 350.37 326.98 350.64C326.99 350.92 326.78 351.15 326.51 351.16L279.75 353.51C279.75 353.51 279.73 353.51 279.72 353.51H279.73Z" fill="#732A09"/>
<path d="M315.21 351.72H315.2C314.92 351.72 314.71 351.48 314.71 351.21C314.71 351.1 315.09 340.63 326.49 339.48C326.77 339.46 327.01 339.65 327.04 339.93C327.07 340.21 326.87 340.45 326.59 340.48C316.08 341.54 315.72 350.84 315.71 351.24C315.71 351.51 315.48 351.73 315.21 351.73V351.72Z" fill="#732A09"/>
<path d="M302.35 338.34C302.24 338.34 302.13 338.3 302.04 338.23L291.9 330.24C291.68 330.07 291.65 329.75 291.82 329.54C291.99 329.32 292.3 329.29 292.52 329.46L302.66 337.45C302.88 337.62 302.91 337.94 302.74 338.15C302.64 338.27 302.49 338.34 302.35 338.34Z" fill="#732A09"/>
<path d="M297.64 340.41C297.53 340.41 297.42 340.37 297.33 340.3L287.19 332.32C286.97 332.15 286.94 331.83 287.11 331.62C287.28 331.4 287.59 331.37 287.81 331.54L297.95 339.52C298.17 339.69 298.2 340.01 298.03 340.22C297.93 340.34 297.78 340.41 297.64 340.41Z" fill="#732A09"/>
<path d="M394.04 325.55L399.47 347.78C399.85 349.33 398.9 350.9 397.35 351.3L356.4 361.62C354.68 362.05 352.98 360.87 352.79 359.11L352.68 358.12C352.68 358.12 350.16 338.29 370.18 331.91C370.18 331.91 380.94 332.17 394.02 325.56L394.04 325.55Z" fill="#424D1D"/>
<path d="M353.15 358.05C352.93 358.05 352.72 357.9 352.67 357.67C352.6 357.4 352.76 357.13 353.03 357.06L398.43 345.62C398.7 345.55 398.97 345.71 399.04 345.98C399.11 346.25 398.95 346.52 398.68 346.59L353.28 358.03C353.28 358.03 353.2 358.05 353.16 358.05H353.15Z" fill="#732A09"/>
<path d="M387.59 349.37C387.35 349.37 387.14 349.2 387.1 348.96C387.08 348.86 385.4 338.51 396.36 335.16C396.62 335.08 396.9 335.23 396.98 335.49C397.06 335.75 396.91 336.03 396.65 336.11C386.55 339.2 388.02 348.4 388.08 348.78C388.13 349.05 387.94 349.31 387.67 349.36C387.64 349.36 387.61 349.36 387.58 349.36L387.59 349.37Z" fill="#732A09"/>
<path d="M372.37 338.75C372.29 338.75 372.22 338.73 372.14 338.7L360.64 332.85C360.39 332.73 360.3 332.42 360.42 332.18C360.54 331.93 360.85 331.83 361.09 331.96L372.59 337.81C372.84 337.93 372.93 338.24 372.81 338.48C372.72 338.65 372.55 338.75 372.36 338.75H372.37Z" fill="#732A09"/>
<path d="M368.15 341.7C368.07 341.7 368 341.68 367.92 341.65L356.42 335.8C356.17 335.68 356.08 335.37 356.2 335.13C356.32 334.88 356.62 334.78 356.87 334.91L368.37 340.76C368.62 340.88 368.71 341.19 368.59 341.43C368.5 341.6 368.33 341.7 368.14 341.7H368.15Z" fill="#732A09"/>
<path d="M399.47 348.28C399.24 348.28 399.04 348.13 398.98 347.9L393.55 325.67C393.48 325.4 393.65 325.13 393.92 325.07C394.19 325 394.46 325.17 394.52 325.44L399.95 347.67C400.02 347.94 399.85 348.21 399.58 348.27C399.54 348.27 399.5 348.28 399.46 348.28H399.47Z" fill="#732A09"/>
<path d="M331.08 82.71C315.04 82.03 299.72 91.37 297.71 99.68C296.03 106.64 290.48 165.71 288.73 184.65C288.44 187.75 290.93 190.4 294.04 190.32L371.03 188.44C371.89 188.42 372.56 187.69 372.51 186.83C371.83 176.05 367.74 113 364.64 99.87C361.25 85.5 344.36 83.26 331.08 82.7V82.71Z" fill="#424D1D"/>
<path d="M304.84 90.55C304.84 90.55 293.68 97.12 284.97 121.58C276.26 146.04 277.56 168.95 294.9 166.89C312.24 164.83 304.83 90.55 304.83 90.55H304.84Z" fill="#424D1D"/>
<path d="M354.31 87.34C354.31 87.34 366.28 90.55 372.6 112.68C378.92 134.81 382.59 159.13 376.18 167.02C369.77 174.91 359.91 171.02 359.91 171.02L354.31 87.34Z" fill="#424D1D"/>
<path d="M354.31 135.84C354.17 135.84 354.03 135.78 353.93 135.67C346.89 127.62 342.81 130.48 342.77 130.52C342.55 130.68 342.23 130.64 342.07 130.41C341.91 130.19 341.95 129.88 342.17 129.71C342.36 129.57 346.62 126.57 353.64 133.88C353 127.41 350.96 102.67 356.46 97.18C356.66 96.98 356.97 96.98 357.17 97.18C357.37 97.38 357.37 97.69 357.17 97.89C351.31 103.75 354.76 134.97 354.8 135.28C354.82 135.5 354.7 135.71 354.5 135.79C354.44 135.82 354.37 135.83 354.3 135.83L354.31 135.84Z" fill="#732A09"/>
<path d="M364.58 172.49C355.52 172.49 346.07 167.09 336.94 156.63C327.77 146.12 331.89 139.39 332.07 139.11C332.22 138.88 332.53 138.81 332.76 138.96C332.99 139.11 333.06 139.42 332.92 139.65C332.88 139.71 329.05 146.07 337.7 155.97C345.16 164.52 356.77 174.05 369.74 170.87C370 170.8 370.28 170.97 370.34 171.24C370.41 171.51 370.24 171.78 369.97 171.84C368.2 172.27 366.4 172.49 364.59 172.49H364.58Z" fill="#732A09"/>
<path d="M293.58 167.52C293.4 167.52 293.23 167.52 293.05 167.52C292.77 167.52 292.56 167.28 292.56 167.01C292.56 166.74 292.82 166.51 293.07 166.52C293.23 166.52 293.4 166.52 293.56 166.52C306.85 166.52 325.74 152.58 327.73 146.46C329.6 140.71 317.44 134.79 317.32 134.73C317.21 134.66 313.56 132.07 309.35 133.43C304.98 134.84 296.59 141.5 296.51 141.57C296.36 141.69 296.14 141.72 295.97 141.62C295.79 141.53 295.69 141.34 295.7 141.15L298.09 103.34C298.11 103.06 298.34 102.84 298.62 102.87C298.9 102.89 299.1 103.12 299.09 103.4L296.77 140.1C299.08 138.32 305.31 133.68 309.05 132.48C313.75 130.96 317.67 133.76 317.84 133.88C318.3 134.09 330.83 140.2 328.69 146.77C326.58 153.27 307.5 167.52 293.58 167.52Z" fill="#732A09"/>
<path d="M334.18 128.4C333.54 131.79 328.46 139.43 326.42 142.4C325.9 143.15 324.96 143.49 324.09 143.21C322.24 142.62 318.91 141.3 315.66 138.71C314.55 137.83 314.38 136.21 315.28 135.12C317.04 133 318 131.8 317.95 130.06C317.89 127.86 313.29 123.57 313.76 121.73C314.2 120.01 315.88 120.63 316.08 120.71C315.92 120.56 314.59 119.31 314.07 116.89C313.52 114.31 315.21 113.98 316.57 114.85C316.57 114.85 314.89 111.8 316.18 110.16C317.41 108.59 319.36 110.21 319.53 110.35C319.41 110.16 318.04 108.04 319.23 106.88C320.48 105.67 323.97 107.32 327.01 111.02C327.39 111.48 327.79 112.02 328.21 112.63C328.48 111.03 329.1 109.42 330.48 110.59C332.9 112.64 332.39 117.32 333.62 123.66V123.7C334.17 125.52 334.41 127.17 334.18 128.39V128.4Z" fill="white"/>
<path d="M324.72 143.81C324.46 143.81 324.19 143.77 323.93 143.69C322.17 143.12 318.71 141.78 315.35 139.11C314.71 138.6 314.3 137.86 314.22 137.05C314.14 136.24 314.38 135.44 314.9 134.81C316.66 132.7 317.5 131.61 317.46 130.09C317.44 129.19 316.35 127.64 315.4 126.27C314.1 124.41 312.98 122.81 313.29 121.62C313.46 120.97 313.79 120.51 314.29 120.26C314.49 120.16 314.69 120.1 314.89 120.07C314.41 119.38 313.88 118.37 313.59 117.01C313.23 115.34 313.75 114.58 314.24 114.23C314.62 113.97 315.11 113.88 315.63 113.96C315.22 112.82 314.84 111.06 315.79 109.86C316.19 109.35 316.68 109.07 317.27 109C317.67 108.96 318.06 109.03 318.42 109.15C318.16 108.3 318.11 107.28 318.88 106.53C319.28 106.15 319.85 105.97 320.52 106C322.44 106.11 325.14 107.96 327.4 110.71C327.59 110.93 327.78 111.18 327.97 111.44C328.25 110.51 328.66 109.96 329.19 109.77C329.69 109.58 330.24 109.73 330.8 110.21C332.59 111.72 332.89 114.36 333.31 118C333.5 119.66 333.72 121.53 334.11 123.57C334.71 125.6 334.9 127.26 334.67 128.49C334.01 131.96 328.96 139.57 326.83 142.68C326.34 143.4 325.54 143.8 324.72 143.8V143.81ZM315.2 121.05C315.04 121.05 314.88 121.08 314.74 121.15C314.51 121.27 314.35 121.5 314.25 121.87C314.06 122.61 315.26 124.32 316.21 125.7C317.35 127.33 318.42 128.87 318.45 130.07C318.5 132.04 317.37 133.4 315.66 135.46C315.31 135.88 315.15 136.41 315.21 136.95C315.27 137.5 315.54 137.99 315.97 138.33C319.21 140.9 322.54 142.2 324.24 142.74C324.9 142.95 325.61 142.71 326.01 142.13C327.65 139.74 333.05 131.69 333.7 128.32C333.9 127.26 333.71 125.72 333.16 123.86C332.74 121.7 332.52 119.8 332.33 118.13C331.94 114.72 331.65 112.25 330.17 110.99C330.02 110.86 329.73 110.66 329.55 110.72C329.3 110.81 328.94 111.39 328.72 112.73C328.69 112.93 328.53 113.09 328.34 113.14C328.14 113.18 327.94 113.1 327.82 112.94C327.39 112.32 327.01 111.8 326.65 111.36C324.27 108.46 321.84 107.09 320.49 107.01C320.09 106.99 319.8 107.07 319.61 107.26C318.77 108.08 319.77 109.76 319.98 110.09C320.11 110.3 320.08 110.58 319.89 110.74C319.71 110.9 319.43 110.91 319.24 110.76C318.75 110.35 318 109.96 317.4 110.01C317.09 110.04 316.83 110.2 316.6 110.49C315.71 111.62 316.61 113.86 317.03 114.63C317.14 114.83 317.1 115.08 316.93 115.24C316.76 115.4 316.51 115.42 316.32 115.3C315.75 114.94 315.15 114.84 314.82 115.07C314.48 115.31 314.39 115.94 314.57 116.82C315.04 118.99 316.2 120.16 316.43 120.38C316.61 120.54 316.64 120.81 316.51 121.01C316.38 121.21 316.13 121.3 315.9 121.21C315.74 121.15 315.47 121.07 315.2 121.07V121.05Z" fill="#732A09"/>
<path d="M330.93 117.62C330.75 117.62 330.58 117.52 330.49 117.35C330.48 117.33 329.2 114.88 327.81 112.92C327.65 112.69 327.7 112.38 327.93 112.22C328.16 112.06 328.47 112.11 328.63 112.34C330.06 114.35 331.33 116.78 331.38 116.88C331.51 117.13 331.41 117.43 331.17 117.55C331.1 117.59 331.02 117.61 330.94 117.61L330.93 117.62Z" fill="#732A09"/>
<path d="M326.46 118.56C326.31 118.56 326.16 118.49 326.06 118.36C326.02 118.31 322.35 113.44 319.2 110.74C318.99 110.56 318.97 110.24 319.15 110.03C319.33 109.82 319.65 109.8 319.86 109.98C323.09 112.75 326.71 117.55 326.87 117.76C327.04 117.98 326.99 118.29 326.77 118.46C326.68 118.53 326.58 118.56 326.47 118.56H326.46Z" fill="#732A09"/>
<path d="M321.71 121.61C321.55 121.61 321.39 121.53 321.29 121.39C321.27 121.35 318.76 117.59 316.23 115.23C316.03 115.04 316.02 114.73 316.21 114.52C316.4 114.32 316.71 114.31 316.92 114.5C319.54 116.94 322.02 120.68 322.13 120.84C322.28 121.07 322.22 121.38 321.99 121.53C321.91 121.59 321.81 121.61 321.71 121.61Z" fill="#732A09"/>
<path d="M320.41 126.54C320.25 126.54 320.09 126.46 319.99 126.32C319.97 126.29 317.71 122.94 315.73 121.08C315.53 120.89 315.52 120.57 315.71 120.37C315.9 120.17 316.22 120.16 316.42 120.35C318.48 122.29 320.73 125.62 320.82 125.76C320.97 125.99 320.91 126.3 320.68 126.45C320.59 126.51 320.5 126.53 320.4 126.53L320.41 126.54Z" fill="#732A09"/>
<path d="M341.74 137.03C343.68 135.26 343.95 132.29 342.48 130.11C341.83 129.14 341.15 128.04 340.75 126.3C339.92 122.68 339.92 116.47 337.23 115.82C334.54 115.17 334.54 121.11 334.54 121.11C334.54 121.11 327.77 110.54 324.06 108.41C320.35 106.28 323.41 112.68 323.41 112.68C323.41 112.68 321.18 110.64 319.79 111.66C318.4 112.68 321.18 115.83 321.18 115.83C321.18 115.83 318.77 114.35 317.93 115.74C317.09 117.13 319.51 120.28 319.51 120.28L321.92 123.71C321.92 123.71 318.69 121.58 317.76 122.78C316.83 123.98 319.05 126.21 322.29 129.55C325.53 132.89 329.43 139.1 334.07 139.84C336.85 140.29 339.77 138.83 341.73 137.03H341.74Z" fill="white"/>
<path d="M335.1 140.42C334.72 140.42 334.35 140.39 333.99 140.33C330.32 139.74 327.2 136.03 324.45 132.76C323.56 131.71 322.73 130.71 321.93 129.89L321.66 129.61C318.25 126.1 316.19 123.98 317.37 122.47C318.02 121.64 319.25 121.86 320.32 122.29L319.1 120.56C318.67 120.01 316.54 117.07 317.5 115.47C317.74 115.07 318.11 114.8 318.56 114.69C318.94 114.6 319.34 114.62 319.73 114.7C319.26 113.94 318.83 113.03 318.91 112.27C318.96 111.84 319.16 111.49 319.49 111.24C320.36 110.6 321.43 110.87 322.28 111.29C321.79 109.95 321.42 108.37 322.1 107.73C322.79 107.09 323.93 107.74 324.3 107.96C327.33 109.7 332.19 116.67 334.12 119.57C334.27 118.25 334.65 116.46 335.65 115.68C336.13 115.3 336.71 115.18 337.33 115.33C339.66 115.89 340.18 119.53 340.69 123.06C340.86 124.2 341.01 125.28 341.22 126.19C341.6 127.83 342.22 128.85 342.88 129.83C344.5 132.24 344.14 135.49 342.06 137.4C339.94 139.34 337.41 140.42 335.09 140.42H335.1ZM318.65 122.91C318.42 122.91 318.25 122.96 318.15 123.09C317.51 123.92 319.76 126.24 322.37 128.92L322.64 129.2C323.46 130.04 324.31 131.05 325.21 132.12C327.85 135.26 330.84 138.82 334.14 139.34C336.85 139.78 339.66 138.24 341.39 136.65C343.11 135.07 343.4 132.38 342.06 130.38C341.37 129.36 340.67 128.21 340.25 126.41C340.03 125.46 339.87 124.36 339.7 123.2C339.26 120.16 338.76 116.71 337.09 116.3C336.76 116.22 336.5 116.27 336.26 116.46C335.24 117.26 335.02 120.08 335.02 121.1C335.02 121.32 334.87 121.52 334.66 121.58C334.45 121.64 334.22 121.56 334.1 121.37C334.03 121.27 327.35 110.88 323.79 108.83C323.01 108.38 322.77 108.47 322.77 108.47C322.51 108.71 322.93 110.54 323.84 112.45C323.94 112.67 323.88 112.92 323.69 113.07C323.5 113.21 323.23 113.2 323.05 113.04C323.03 113.02 321.09 111.3 320.07 112.05C319.96 112.13 319.91 112.23 319.89 112.38C319.8 113.18 320.86 114.71 321.54 115.49C321.7 115.68 321.71 115.95 321.54 116.14C321.38 116.33 321.11 116.37 320.9 116.24C320.54 116.02 319.46 115.49 318.78 115.66C318.58 115.71 318.45 115.81 318.34 115.98C317.89 116.74 318.97 118.76 319.89 119.96L322.31 123.41C322.45 123.61 322.43 123.87 322.26 124.05C322.09 124.22 321.83 124.25 321.63 124.12C320.71 123.51 319.39 122.9 318.63 122.9L318.65 122.91Z" fill="#732A09"/>
<path d="M337.32 125.04C337.17 125.04 337.03 124.98 336.93 124.85L334.15 121.42C333.98 121.21 334.01 120.89 334.22 120.72C334.44 120.55 334.75 120.58 334.92 120.79L337.7 124.22C337.87 124.43 337.84 124.75 337.63 124.92C337.54 125 337.43 125.03 337.32 125.03V125.04Z" fill="#732A09"/>
<path d="M331.2 122.08C331.06 122.08 330.92 122.02 330.82 121.91L323.03 113.01C322.85 112.8 322.87 112.49 323.08 112.3C323.29 112.12 323.6 112.14 323.79 112.35L331.58 121.25C331.76 121.46 331.74 121.77 331.53 121.96C331.44 122.04 331.32 122.08 331.2 122.08Z" fill="#732A09"/>
<path d="M328.42 124.45C328.28 124.45 328.15 124.39 328.05 124.28L320.82 116.16C320.64 115.95 320.65 115.64 320.86 115.45C321.07 115.27 321.38 115.28 321.57 115.49L328.8 123.61C328.98 123.82 328.97 124.13 328.76 124.32C328.66 124.4 328.55 124.45 328.43 124.45H328.42Z" fill="#732A09"/>
<path d="M326 128.01C325.88 128.01 325.76 127.97 325.66 127.88L321.58 124.08C321.38 123.89 321.37 123.58 321.56 123.37C321.75 123.17 322.07 123.16 322.27 123.34L326.35 127.14C326.55 127.33 326.56 127.64 326.37 127.85C326.27 127.96 326.14 128.01 326 128.01Z" fill="#732A09"/>
<path d="M307.45 47.06C306.93 43.59 302.69 37.54 307.35 33.08C312.01 28.62 322.93 26.23 329.21 28.03C335.49 29.83 340.35 35.75 340.35 35.75C340.35 35.75 356.41 37.59 351.55 57.06C348.75 68.27 335.5 79.18 335.5 79.18L307.45 47.06Z" fill="#F2E0D0"/>
<path d="M335.5 79.68C335.36 79.68 335.22 79.62 335.12 79.51L307.07 47.39C307.01 47.32 306.97 47.23 306.95 47.14C306.83 46.31 306.46 45.28 306.07 44.19C304.89 40.86 303.27 36.29 306.99 32.73C311.69 28.23 322.76 25.67 329.34 27.56C335.21 29.24 339.77 34.32 340.6 35.29C341.72 35.46 347.1 36.52 350.41 41.29C353.14 45.22 353.68 50.58 352.03 57.2C349.23 68.44 336.36 79.13 335.81 79.58C335.72 79.66 335.6 79.69 335.49 79.69L335.5 79.68ZM307.92 46.84L335.55 78.48C337.7 76.62 348.6 66.82 351.06 56.94C352.64 50.61 352.14 45.53 349.59 41.85C346.22 36.98 340.35 36.26 340.29 36.25C340.16 36.23 340.04 36.17 339.96 36.07C339.91 36.01 335.12 30.25 329.07 28.52C322.89 26.75 312.1 29.24 307.69 33.46C304.44 36.57 305.81 40.44 307.02 43.86C307.4 44.94 307.76 45.96 307.92 46.85V46.84Z" fill="#732A09"/>
<path d="M324.44 78.97C324.44 78.97 324.44 81.59 324 84.63C323.56 87.67 325.89 90.19 328.86 90.1L332.32 90C335.38 89.91 337.73 87.24 337.42 84.2L336.31 73.16L324.44 78.97Z" fill="white"/>
<path d="M328.72 90.6C327.22 90.6 325.8 89.96 324.8 88.84C323.76 87.67 323.29 86.11 323.51 84.55C323.94 81.59 323.95 78.99 323.95 78.96C323.95 78.77 324.06 78.6 324.23 78.51L336.1 72.7C336.25 72.63 336.42 72.63 336.56 72.71C336.7 72.79 336.8 72.93 336.81 73.1L337.92 84.14C338.08 85.73 337.57 87.33 336.51 88.53C335.45 89.73 333.93 90.45 332.34 90.49L328.88 90.59C328.83 90.59 328.78 90.59 328.73 90.59L328.72 90.6ZM324.94 79.28C324.92 80.07 324.85 82.23 324.5 84.69C324.32 85.95 324.7 87.22 325.55 88.17C326.39 89.11 327.6 89.63 328.85 89.59L332.31 89.49C333.65 89.45 334.88 88.88 335.76 87.87C336.64 86.86 337.06 85.57 336.93 84.24L335.9 73.92L324.95 79.28H324.94Z" fill="#732A09"/>
<path d="M311.42 40.34C311.42 40.34 298.11 55.76 303.28 71.74C308.45 87.72 334.31 83.61 338.17 70.53C338.17 70.53 344.46 72.42 345.29 67.57C345.95 63.73 343.57 61.13 340.67 61.83C339.34 62.15 338.29 63.15 337.72 64.39L335.98 68.2L334.54 58.41C334.54 58.41 325.5 55.21 321.67 49.02C321.67 49.02 314.78 47.15 311.43 40.34H311.42Z" fill="white"/>
<path d="M319.15 82.62C311.08 82.62 304.99 78.63 302.81 71.89C297.61 55.83 310.91 40.17 311.05 40.01C311.16 39.88 311.32 39.82 311.49 39.84C311.66 39.86 311.8 39.96 311.88 40.12C315.09 46.65 321.73 48.52 321.8 48.54C321.92 48.57 322.03 48.65 322.09 48.76C325.78 54.72 334.62 57.91 334.7 57.94C334.87 58 335 58.16 335.03 58.34L336.23 66.45L337.27 64.18C337.93 62.74 339.16 61.68 340.56 61.34C341.96 61 343.35 61.36 344.35 62.3C345.64 63.51 346.16 65.46 345.79 67.65C345.56 68.99 344.92 69.99 343.9 70.63C342.08 71.76 339.55 71.36 338.51 71.13C336.02 78.55 327.13 82.52 319.48 82.62C319.37 82.62 319.27 82.62 319.16 82.62H319.15ZM311.33 41.25C309.03 44.19 299.28 57.78 303.76 71.58C305.83 77.96 311.7 81.67 319.46 81.61C329.29 81.48 336.07 75.86 337.69 70.38C337.73 70.25 337.81 70.15 337.93 70.08C338.05 70.02 338.18 70 338.31 70.04C338.34 70.04 341.45 70.96 343.37 69.77C344.15 69.29 344.62 68.54 344.8 67.48C345.11 65.65 344.69 63.99 343.66 63.03C342.89 62.31 341.87 62.05 340.78 62.31C339.68 62.57 338.7 63.43 338.17 64.59L336.43 68.4C336.34 68.6 336.13 68.72 335.91 68.69C335.69 68.66 335.52 68.49 335.49 68.27L334.09 58.78C332.5 58.18 324.93 55.07 321.35 49.45C320.22 49.1 314.56 47.1 311.34 41.26L311.33 41.25Z" fill="#732A09"/>
<path d="M314.28 52.21C316.33 51.25 318.7 51.26 320.83 51.91C321.54 52.12 322.21 52.46 322.82 52.86C323.06 53.01 323.12 53.33 322.97 53.56C322.86 53.73 322.66 53.82 322.47 53.79C319.81 53.31 317.25 53 314.58 53.16C314.02 53.25 313.77 52.45 314.28 52.21Z" fill="#732A09"/>
<path d="M303.48 50.42C305.13 49.6 307.1 49.72 308.71 50.53C309.23 50.84 310.73 51.63 310.11 52.33C309.97 52.46 309.79 52.5 309.62 52.45C307.64 51.82 305.8 51.43 303.77 51.37C303.22 51.41 303 50.66 303.49 50.41L303.48 50.42Z" fill="#732A09"/>
<path d="M308.45 54.02C307.23 58.13 305.64 61.1 305.64 61.1C305.64 61.1 302.13 59.53 301.44 62.05C300.63 65.05 305.09 65.68 306.18 63.26" fill="white"/>
<path d="M303.68 65.24C303.28 65.24 302.89 65.17 302.53 65.05C301.19 64.57 300.57 63.34 300.96 61.92C301.16 61.19 301.57 60.67 302.19 60.38C303.27 59.87 304.69 60.23 305.4 60.48C305.86 59.55 307.03 57.05 307.97 53.89C308.05 53.63 308.33 53.48 308.59 53.55C308.86 53.63 309.01 53.91 308.93 54.17C307.71 58.28 306.15 61.22 306.08 61.34C305.96 61.57 305.67 61.67 305.44 61.56C304.95 61.34 303.49 60.87 302.62 61.28C302.27 61.45 302.05 61.74 301.93 62.18C301.58 63.49 302.47 63.96 302.88 64.11C303.87 64.46 305.25 64.13 305.74 63.06C305.85 62.81 306.15 62.7 306.4 62.81C306.65 62.92 306.76 63.22 306.65 63.47C306.1 64.68 304.87 65.25 303.69 65.25L303.68 65.24Z" fill="#732A09"/>
<path d="M318 58.26C317.78 59.35 316.99 60.1 316.24 59.95C315.48 59.8 315.06 58.8 315.27 57.71C315.34 57.39 315.46 57.08 315.61 56.83L316.76 57.79L316.47 56.08C316.65 56.01 316.83 55.99 317.02 56.03C317.77 56.18 318.2 57.18 317.99 58.26H318Z" fill="#732A09"/>
<path d="M306.1 56.72C305.94 57.54 305.34 58.11 304.78 57.99C304.22 57.87 303.89 57.12 304.05 56.3C304.1 56.06 304.19 55.83 304.31 55.64L305.18 56.36L304.96 55.07C305.1 55.02 305.23 55 305.37 55.03C305.93 55.14 306.26 55.9 306.1 56.71V56.72Z" fill="#732A09"/>
<path d="M313.98 71.27C312.88 71.27 311.81 70.82 310.78 69.91C310.57 69.73 310.55 69.41 310.73 69.2C310.91 68.99 311.23 68.97 311.44 69.15C312.44 70.03 313.47 70.39 314.49 70.22C316.76 69.84 318.39 67.02 318.41 66.99C318.55 66.75 318.85 66.67 319.09 66.8C319.33 66.94 319.41 67.24 319.28 67.48C319.2 67.61 317.4 70.74 314.66 71.2C314.43 71.24 314.21 71.26 313.98 71.26V71.27Z" fill="#732A09"/>
<path d="M338.86 66.3C338.86 66.3 339.71 63.32 342.38 63.78L338.86 66.3Z" fill="white"/>
<path d="M338.86 66.8C338.86 66.8 338.77 66.8 338.72 66.78C338.45 66.7 338.3 66.43 338.38 66.16C338.71 64.98 340 62.86 342.46 63.29C342.73 63.34 342.91 63.6 342.87 63.87C342.82 64.14 342.56 64.33 342.29 64.28C340.09 63.9 339.37 66.34 339.34 66.44C339.28 66.66 339.08 66.8 338.86 66.8Z" fill="#732A09"/>
<path d="M342.53 68.34C342.53 68.34 343.23 65.28 340.89 63.91L342.53 68.34Z" fill="white"/>
<path d="M342.53 68.84C342.53 68.84 342.46 68.84 342.42 68.83C342.15 68.77 341.98 68.5 342.04 68.23C342.06 68.12 342.62 65.5 340.63 64.34C340.39 64.2 340.31 63.89 340.45 63.66C340.59 63.42 340.9 63.34 341.13 63.48C343.75 65.02 343.04 68.32 343.01 68.46C342.96 68.69 342.75 68.85 342.52 68.85L342.53 68.84Z" fill="#732A09"/>
<path d="M372.69 197.61C372.69 197.61 382.83 196.34 397.25 200.97C411.67 205.6 417.24 212.82 420.13 222.11C423.02 231.4 417.65 243.78 409.81 246.47L405.9 264.01C405.9 264.01 395.3 267.62 385.53 267.05L372.7 197.61H372.69Z" fill="#F23005"/>
<path d="M366.25 241.28C366.25 241.28 369.85 252.34 368.13 252.54C366.41 252.74 363.55 254.89 360.72 256.41C357.89 257.93 352.71 258.31 349.98 256.67C349.98 256.67 348.85 256.05 349.1 255.25C349.35 254.45 352.08 254.9 353.99 254.62C352.32 254.59 349.6 254.38 347.52 253.44C347.52 253.44 346.08 252.78 346.15 251.93C346.21 251.2 350.01 251.51 351.01 251.6C348.52 251.33 345.69 250.47 344.35 248.87C344.35 248.87 343.76 247.6 344.88 247.13C346 246.66 348.18 248.07 350.45 248.21C345.49 247.16 343.64 244.39 344.44 243.67C345.38 242.81 348.48 244.15 351.99 244.44C355.5 244.74 357.4 243.61 357.4 243.61C352.41 241.22 354.32 238.5 356.28 239.25C358.24 240.01 362.37 241.79 366.25 241.26V241.28Z" fill="white"/>
<path d="M354.71 258.23C352.85 258.23 351.03 257.89 349.73 257.1C349.2 256.81 348.34 256.04 348.63 255.11C348.71 254.84 348.9 254.66 349.15 254.53C348.52 254.37 347.9 254.16 347.32 253.9C347.14 253.82 345.56 253.05 345.66 251.89C345.67 251.76 345.73 251.56 345.93 251.38C346.02 251.31 346.18 251.17 346.72 251.07C345.67 250.64 344.66 250.04 343.96 249.2C343.93 249.17 343.91 249.13 343.89 249.09C343.85 249.01 343.52 248.26 343.79 247.55C343.94 247.16 344.25 246.86 344.68 246.68C344.88 246.6 345.1 246.56 345.34 246.55C344.49 245.88 343.98 245.17 343.81 244.55C343.68 244.05 343.78 243.6 344.1 243.32C344.86 242.63 346.28 242.93 348.23 243.34C349.37 243.58 350.67 243.85 352.03 243.97C353.95 244.13 355.38 243.85 356.22 243.58C353.88 242.19 353.44 240.71 353.86 239.73C354.26 238.81 355.39 238.41 356.45 238.82L356.91 239C358.93 239.8 362.7 241.28 366.17 240.8C366.41 240.76 366.64 240.91 366.71 241.14C367.46 243.44 369.82 251.07 368.82 252.64C368.67 252.88 368.44 253.03 368.18 253.06C367.13 253.18 365.47 254.19 363.71 255.26C362.81 255.81 361.88 256.37 360.94 256.87C359.34 257.73 356.98 258.25 354.69 258.25L354.71 258.23ZM346.67 252.09C346.78 252.4 347.33 252.79 347.73 252.98C349.77 253.9 352.54 254.09 354 254.12C354.26 254.12 354.47 254.33 354.49 254.59C354.51 254.85 354.32 255.08 354.06 255.12C353.32 255.23 352.5 255.23 351.71 255.24C350.93 255.24 349.75 255.25 349.55 255.45C349.48 255.71 349.98 256.1 350.22 256.24C352.82 257.81 357.87 257.38 360.48 255.98C361.39 255.49 362.31 254.93 363.2 254.39C365.14 253.22 366.81 252.2 368.07 252.05C368.5 251.44 367.34 246.34 365.9 241.83C362.3 242.18 358.59 240.71 356.56 239.92L356.1 239.74C355.55 239.53 354.97 239.69 354.79 240.12C354.5 240.8 355.26 242.05 357.62 243.18C357.79 243.26 357.89 243.43 357.9 243.61C357.9 243.79 357.81 243.97 357.66 244.06C357.58 244.11 355.59 245.27 351.95 244.96C350.53 244.84 349.2 244.56 348.03 244.32C346.62 244.02 345.16 243.71 344.77 244.06C344.76 244.07 344.74 244.15 344.77 244.29C345.02 245.2 346.8 246.94 350.54 247.74C350.8 247.79 350.97 248.04 350.93 248.3C350.89 248.56 350.67 248.76 350.4 248.73C349.29 248.66 348.23 248.32 347.3 248.02C346.37 247.72 345.49 247.43 345.05 247.61C344.82 247.71 344.74 247.83 344.71 247.92C344.62 248.15 344.7 248.47 344.76 248.62C346.05 250.1 348.84 250.88 351.05 251.12C351.32 251.15 351.52 251.39 351.49 251.67C351.46 251.94 351.23 252.14 350.95 252.12C348.25 251.87 347.03 251.99 346.66 252.12L346.67 252.09Z" fill="#732A09"/>
<path d="M350.45 248.72C350.31 248.72 350.17 248.66 350.07 248.55C349.93 248.4 349.9 248.17 350 247.99C350.12 247.74 350.42 247.64 350.67 247.77C350.67 247.77 350.69 247.77 350.7 247.78C350.8 247.84 350.88 247.93 350.92 248.04C351.01 248.3 350.88 248.59 350.62 248.68C350.56 248.7 350.51 248.71 350.45 248.71V248.72Z" fill="#732A09"/>
<path d="M352.66 252.19C352.2 252.19 351.71 252.17 351.2 252.12L350.95 252.09C350.68 252.06 350.48 251.81 350.51 251.53C350.54 251.26 350.79 251.07 351.06 251.09L351.29 251.12C352.25 251.21 353.18 251.21 353.91 251.12C354.19 251.08 354.43 251.28 354.47 251.55C354.51 251.82 354.31 252.07 354.04 252.11C353.62 252.16 353.15 252.19 352.65 252.19H352.66Z" fill="#732A09"/>
<path d="M351.25 252.12C351.25 252.12 351.21 252.12 351.19 252.12L350.95 252.09C350.68 252.06 350.48 251.81 350.51 251.53C350.54 251.26 350.8 251.07 351.06 251.09L351.29 251.12C351.56 251.15 351.76 251.4 351.73 251.67C351.7 251.92 351.48 252.11 351.23 252.11L351.25 252.12Z" fill="#732A09"/>
<path d="M354.5 255.12C354.35 255.12 354.2 255.12 354.03 255.12C353.95 255.12 353.85 255.12 353.77 255.07C353.52 254.95 353.42 254.65 353.55 254.4C353.64 254.22 353.83 254.09 354.01 254.12C354.89 254.14 355.46 254.1 355.47 254.1C355.73 254.08 355.98 254.29 356 254.57C356.02 254.85 355.81 255.08 355.53 255.1C355.53 255.1 355.14 255.12 354.5 255.12Z" fill="#732A09"/>
<path d="M353.99 255.12C353.91 255.12 353.84 255.1 353.77 255.07C353.52 254.95 353.42 254.65 353.55 254.4C353.66 254.19 353.91 254.07 354.14 254.14C354.41 254.22 354.56 254.49 354.48 254.76C354.44 254.92 354.32 255.03 354.18 255.09C354.12 255.11 354.06 255.13 353.99 255.13V255.12Z" fill="#732A09"/>
<path d="M353.52 249.11H353.5C352.42 249.06 351.36 248.93 350.37 248.72C350.26 248.7 350.16 248.65 350.08 248.56C349.94 248.41 349.91 248.18 350.01 248C350.12 247.78 350.37 247.67 350.6 247.74C351.54 247.94 352.53 248.06 353.56 248.11C353.84 248.12 354.05 248.36 354.04 248.63C354.03 248.9 353.81 249.11 353.54 249.11H353.52Z" fill="#732A09"/>
<path d="M403.56 216.74C401.55 229.33 402.51 230.55 371.95 237.38L367.53 238.37C365.58 238.81 364.12 240.45 363.98 242.45C363.78 245.29 364.02 249.4 366.37 252.82C367.35 254.24 369.02 255.02 370.73 254.8C377.23 253.97 395.75 251.34 407.02 247.19" fill="#F23005"/>
<path d="M370.15 255.33C368.49 255.33 366.93 254.51 365.96 253.1C363.53 249.56 363.27 245.33 363.48 242.41C363.64 240.23 365.26 238.36 367.42 237.88L371.84 236.89C400.92 230.38 401.11 229.21 402.85 218.02L403.06 216.66C403.1 216.39 403.36 216.2 403.63 216.24C403.9 216.28 404.09 216.54 404.05 216.81L403.84 218.17C402.04 229.72 401.81 231.21 372.06 237.86L367.64 238.85C365.9 239.24 364.6 240.73 364.48 242.48C364.28 245.25 364.52 249.23 366.79 252.54C367.67 253.82 369.16 254.5 370.68 254.3C377.87 253.38 395.78 250.8 406.87 246.72C407.13 246.62 407.42 246.76 407.51 247.02C407.61 247.28 407.47 247.57 407.21 247.66C396.03 251.78 378.03 254.37 370.81 255.3C370.59 255.33 370.38 255.34 370.17 255.34L370.15 255.33Z" fill="#732A09"/>
<path d="M401.66 189.95C400.85 196.53 399.78 201.3 399.18 203.68C398.9 204.77 397.92 205.52 396.8 205.5C394.95 205.47 392.13 205.06 389.91 203.18C389.17 202.55 388.86 201.55 389.14 200.62L390.69 195.4L401.66 189.94V189.95Z" fill="white"/>
<path d="M396.84 206H396.79C394.77 205.96 391.88 205.51 389.59 203.56C388.7 202.8 388.33 201.59 388.66 200.48L390.21 195.26C390.25 195.13 390.34 195.02 390.47 194.96L401.44 189.5C401.6 189.42 401.8 189.43 401.95 189.54C402.1 189.65 402.18 189.83 402.16 190.01C401.34 196.68 400.25 201.51 399.67 203.8C399.34 205.1 398.18 206 396.85 206H396.84ZM391.11 195.76L389.62 200.77C389.4 201.5 389.64 202.3 390.24 202.81C392.31 204.57 394.95 204.98 396.81 205.01C397.73 204.99 398.48 204.43 398.7 203.56C399.25 201.4 400.26 196.96 401.05 190.82L391.11 195.76Z" fill="#732A09"/>
<path d="M387.01 172.23C386.8 168.6 386.91 165.6 387.31 164.75C387.71 163.9 397.01 156.29 404.54 158C412.07 159.71 417.32 162.92 419.32 166.83C419.32 166.83 426.68 170.81 422.87 182.06C419.06 193.31 414.04 198.15 411.61 198.43C409.18 198.71 398.98 195.56 398.98 195.56L387.01 172.21V172.23Z" fill="#F2E0D0"/>
<path d="M411.28 198.96C408.28 198.96 399.24 196.18 398.84 196.05C398.71 196.01 398.6 195.92 398.54 195.8L386.57 172.45C386.54 172.39 386.52 172.32 386.52 172.25C386.44 170.78 386.21 165.89 386.87 164.53C387.29 163.66 396.66 155.69 404.66 157.51C412.22 159.23 417.55 162.4 419.7 166.47C420.17 166.76 421.75 167.84 422.96 169.98C424.25 172.26 425.37 176.24 423.35 182.22C419.38 193.94 414.19 198.64 411.67 198.93C411.56 198.94 411.42 198.95 411.28 198.95V198.96ZM399.33 195.16C402.29 196.07 409.69 198.17 411.55 197.95C413.73 197.7 418.6 193.12 422.4 181.91C426.03 171.18 419.16 167.31 419.09 167.28C419 167.23 418.93 167.16 418.88 167.07C416.94 163.27 411.68 160.15 404.44 158.5C397.24 156.87 388.28 164.13 387.76 164.99C387.48 165.57 387.28 168.05 387.51 172.1L399.34 195.16H399.33Z" fill="#732A09"/>
<path d="M391.69 166.75C391.69 166.75 378.32 179.61 380.9 188.84C383.15 196.87 395.07 202.18 406.65 194.21C406.65 194.21 408.53 196.52 411.2 196.37C413.87 196.22 416.83 189.45 413 188.43L408.63 191.77L407.03 189.86C407.03 189.86 410.69 184.66 411.35 181.77C411.35 181.77 409.5 175.16 403.56 171.1L408.4 166.94L400.25 169.38L396.65 167.89L400.41 163.71L393.88 167.34L391.67 166.76L391.69 166.75Z" fill="white"/>
<path d="M394.82 198.65C392.83 198.65 390.88 198.32 389.03 197.65C384.72 196.09 381.5 192.85 380.42 188.98C377.79 179.58 390.78 166.93 391.34 166.4C391.46 166.28 391.64 166.23 391.81 166.28L393.82 166.81L400.17 163.28C400.38 163.16 400.65 163.21 400.8 163.41C400.95 163.6 400.94 163.87 400.78 164.06L397.49 167.72L400.27 168.87L408.25 166.49C408.48 166.42 408.72 166.52 408.83 166.73C408.94 166.94 408.9 167.2 408.72 167.35L404.37 171.1C409.97 175.22 411.75 181.4 411.83 181.67C411.85 181.75 411.85 181.83 411.83 181.92C411.25 184.49 408.47 188.68 407.65 189.87L408.69 191.12L412.68 188.07C412.8 187.98 412.96 187.95 413.11 187.98C414.68 188.4 415.47 189.71 415.28 191.57C415.04 193.89 413.17 196.79 411.21 196.9C408.95 197.02 407.23 195.58 406.56 194.9C402.8 197.4 398.73 198.68 394.8 198.68L394.82 198.65ZM391.84 167.31C390.21 168.95 379.09 180.48 381.39 188.71C382.39 192.27 385.37 195.26 389.38 196.71C394.7 198.63 400.89 197.58 406.38 193.8C406.59 193.65 406.89 193.69 407.05 193.9C407.07 193.92 408.82 196.01 411.18 195.88C412.49 195.81 414.1 193.53 414.31 191.45C414.4 190.55 414.26 189.43 413.1 189L408.94 192.18C408.73 192.34 408.42 192.31 408.25 192.1L406.65 190.19C406.5 190.02 406.49 189.77 406.63 189.58C406.67 189.53 410.14 184.58 410.84 181.8C410.56 180.9 408.57 175.13 403.29 171.53C403.16 171.44 403.08 171.3 403.07 171.14C403.07 170.99 403.13 170.84 403.24 170.73L406.3 168.1L400.4 169.86C400.29 169.89 400.17 169.89 400.07 169.84L396.47 168.35C396.32 168.29 396.21 168.16 396.17 168C396.13 167.84 396.17 167.68 396.29 167.56L398.05 165.6L394.13 167.78C394.02 167.84 393.88 167.86 393.76 167.83L391.83 167.33L391.84 167.31Z" fill="#732A09"/>
<path d="M399.19 177.76C401.48 176.87 405.24 178.31 404.5 181.22C404.44 181.49 404.17 181.66 403.89 181.6C403.68 181.55 403.55 181.39 403.5 181.2C403.19 180.32 402.83 179.88 402.01 179.51C401.25 179.15 400.21 178.98 399.23 178.75C398.73 178.65 398.71 177.9 399.19 177.77V177.76Z" fill="#732A09"/>
<path d="M389.47 169.79C391.14 169.25 393.09 170.19 393.75 171.8C393.97 172.37 394.43 173.83 393.51 173.89C393.34 173.89 393.18 173.79 393.09 173.66C392.31 172.21 391.2 171.14 389.57 170.79C389.02 170.72 388.93 169.96 389.46 169.8L389.47 169.79Z" fill="#732A09"/>
<path d="M389.23 181.7C388.79 181.7 388.35 181.6 387.98 181.41C386.95 180.89 386.57 179.84 387.02 178.74C387.25 178.18 387.65 177.79 388.17 177.62C389.03 177.33 390.03 177.69 390.59 177.95C391.06 177.23 392.13 175.5 393.09 173.3C393.2 173.05 393.49 172.93 393.75 173.04C394 173.15 394.12 173.45 394.01 173.7C392.69 176.72 391.22 178.81 391.16 178.89C391.01 179.1 390.72 179.16 390.49 179.03C390.15 178.83 389.13 178.35 388.47 178.57C388.22 178.65 388.05 178.83 387.93 179.12C387.59 179.95 388.08 180.36 388.41 180.52C389.08 180.86 390.09 180.74 390.52 180.03C390.66 179.79 390.97 179.72 391.21 179.86C391.45 180 391.52 180.31 391.38 180.55C390.89 181.34 390.04 181.7 389.21 181.7H389.23Z" fill="#732A09"/>
<path d="M400.47 182.37C399.87 183.13 398.96 183.4 398.44 182.98C397.92 182.56 397.98 181.62 398.58 180.86C398.76 180.64 398.97 180.45 399.2 180.32L399.71 181.52L400.17 180.08C400.34 180.1 400.49 180.16 400.62 180.26C401.14 180.67 401.08 181.62 400.48 182.37H400.47Z" fill="#732A09"/>
<path d="M389.57 175.04C388.97 175.8 388.06 176.07 387.54 175.65C387.02 175.23 387.08 174.29 387.68 173.53C387.86 173.31 388.07 173.12 388.3 172.99L388.81 174.19L389.27 172.75C389.44 172.77 389.59 172.83 389.72 172.93C390.24 173.34 390.18 174.29 389.58 175.04H389.57Z" fill="#732A09"/>
<path d="M390.53 188.1C390.25 188.1 389.97 188.06 389.7 187.97C388.64 187.62 387.83 186.62 387.44 185.13C387.37 184.86 387.53 184.59 387.79 184.52C388.06 184.45 388.33 184.61 388.4 184.87C388.71 186.01 389.28 186.78 390.01 187.01C390.63 187.21 391.37 187.03 392.03 186.49C392.25 186.32 392.56 186.35 392.73 186.57C392.9 186.78 392.87 187.1 392.65 187.27C391.98 187.81 391.24 188.09 390.52 188.09L390.53 188.1Z" fill="#732A09"/>
<path d="M411.83 194.81C411.7 194.81 411.58 194.76 411.48 194.67C411.28 194.48 411.28 194.16 411.47 193.96C411.55 193.88 413.35 191.99 412.2 190.7C412.02 190.49 412.03 190.18 412.24 189.99C412.45 189.81 412.76 189.82 412.95 190.03C414.18 191.41 413.46 193.34 412.19 194.65C412.09 194.75 411.96 194.8 411.83 194.8V194.81Z" fill="#732A09"/>
<path d="M391.69 166.75C390.08 166.42 389.51 166.54 389.51 166.54L391.69 166.75Z" fill="white"/>
<path d="M391.69 167.25C391.69 167.25 391.62 167.25 391.59 167.25C390.15 166.96 389.6 167.04 389.6 167.04C389.34 167.08 389.07 166.91 389.02 166.64C388.97 166.37 389.14 166.11 389.41 166.06C389.48 166.05 390.13 165.93 391.79 166.27C392.06 166.33 392.24 166.59 392.18 166.86C392.13 167.1 391.92 167.26 391.69 167.26V167.25Z" fill="#732A09"/>
<path d="M411.36 181.77C412.34 183.85 412.72 186.32 412.72 186.32L411.36 181.77Z" fill="white"/>
<path d="M412.72 186.82C412.48 186.82 412.26 186.64 412.23 186.4C412.23 186.38 411.85 183.98 410.91 181.99C410.79 181.74 410.9 181.44 411.15 181.32C411.4 181.2 411.7 181.31 411.82 181.56C412.82 183.68 413.21 186.14 413.22 186.24C413.26 186.51 413.07 186.77 412.8 186.81C412.77 186.81 412.75 186.81 412.72 186.81V186.82Z" fill="#732A09"/>
<path d="M84.7072 284.124C86.893 284.124 88.6649 282.305 88.6649 280.062C88.6649 277.819 86.893 276 84.7072 276C82.5214 276 80.7495 277.819 80.7495 280.062C80.7495 282.305 82.5214 284.124 84.7072 284.124Z" fill="#424D1D"/>
<path d="M89.0155 293H79.7739C78.7889 293 77.9875 292.199 77.9875 291.214V285.7C77.9875 285.446 78.1938 285.24 78.4482 285.24C78.7026 285.24 78.9088 285.446 78.9088 285.7V291.214C78.9088 291.691 79.2969 292.079 79.7739 292.079H89.0155C89.4926 292.079 89.8806 291.691 89.8806 291.214V288.163C89.8806 287.909 90.0868 287.703 90.3412 287.703C90.5957 287.703 90.8019 287.909 90.8019 288.163V291.214C90.8018 292.199 90.0004 293 89.0155 293Z" fill="#730202"/>
<path d="M90.1182 286.161H78.6711C77.7497 286.161 77 285.411 77 284.49C77 283.568 77.7497 282.819 78.6711 282.819H79.4651C79.7195 282.819 79.9257 283.025 79.9257 283.279C79.9257 283.534 79.7195 283.74 79.4651 283.74H78.6711C78.2576 283.74 77.9212 284.076 77.9212 284.49C77.9212 284.903 78.2576 285.24 78.6711 285.24H90.1182C90.5317 285.24 90.8681 284.903 90.8681 284.49C90.8681 284.076 90.5317 283.74 90.1182 283.74H89.3242C89.0698 283.74 88.8636 283.534 88.8636 283.279C88.8636 283.025 89.0698 282.819 89.3242 282.819H90.1182C91.0397 282.819 91.7893 283.568 91.7893 284.49C91.7893 285.411 91.0397 286.161 90.1182 286.161Z" fill="#730202"/>
<path d="M83.0887 281.922L83.9928 280.826L84.4063 281.353L83.6092 282.367C83.304 282.755 82.7391 282.346 83.0887 281.922ZM84.1445 279.426C84.2306 279.145 84.1911 278.905 83.8675 278.548L83.077 277.597C82.9648 277.465 82.7004 277.659 82.8109 277.818L83.4431 278.597C83.5627 278.742 83.3405 278.935 83.217 278.785L82.563 277.98C82.4412 277.84 82.1895 278.024 82.3169 278.184C82.5013 278.406 82.7865 278.768 82.9709 278.99C83.0987 279.12 82.9044 279.312 82.7783 279.15L82.129 278.35C82.0338 278.247 81.8781 278.311 81.8368 278.432C81.7925 278.561 81.9016 278.655 81.976 278.751L82.7004 279.687C82.9252 279.947 83.1766 280.102 83.4688 280.014C83.5136 280.001 83.5684 279.973 83.6271 279.937L85.5734 282.45C85.6782 282.585 85.8804 282.599 86.0118 282.49L86.0418 282.466C86.1896 282.342 86.2135 282.118 86.087 281.972L84.0258 279.604C84.0858 279.537 84.1297 279.474 84.1445 279.426ZM84.6955 279.973L85.016 279.585C84.6037 278.563 86.1313 277.201 86.8719 277.827C87.7716 278.588 86.4344 280.424 85.4947 279.97L85.1151 280.452L84.6955 279.973Z" fill="#F2E0D0"/>
<path d="M82.5611 289.101L84.4839 291.024L86.4068 289.101C86.6332 288.874 86.7604 288.567 86.7604 288.247V288.193C86.7604 287.556 86.2441 287.04 85.6073 287.04C85.257 287.04 84.9257 287.199 84.7068 287.473L84.4839 287.751L84.2611 287.473C84.0422 287.199 83.7109 287.04 83.3606 287.04C82.7238 287.04 82.2075 287.556 82.2075 288.193V288.247C82.2075 288.567 82.3347 288.874 82.5611 289.101Z" fill="#F23005"/>
<path d="M101.16 204.602C103.475 204.602 105.351 202.676 105.351 200.301C105.351 197.926 103.475 196 101.16 196C98.8461 196 96.97 197.926 96.97 200.301C96.97 202.676 98.8461 204.602 101.16 204.602Z" fill="#424D1D"/>
<path d="M105.722 214H95.937C94.8941 214 94.0457 213.151 94.0457 212.109V206.271C94.0457 206.001 94.264 205.783 94.5334 205.783C94.8028 205.783 95.0211 206.001 95.0211 206.271V212.109C95.0211 212.614 95.432 213.025 95.9371 213.025H105.722C106.227 213.025 106.638 212.614 106.638 212.109V208.879C106.638 208.609 106.857 208.391 107.126 208.391C107.395 208.391 107.614 208.609 107.614 208.879V212.109C107.614 213.151 106.765 214 105.722 214Z" fill="#730202"/>
<path d="M106.89 206.759H94.7694C93.7937 206.759 93 205.965 93 204.989C93 204.013 93.7937 203.22 94.7694 203.22H95.6101C95.8795 203.22 96.0978 203.438 96.0978 203.707C96.0978 203.977 95.8795 204.195 95.6101 204.195H94.7694C94.3316 204.195 93.9754 204.551 93.9754 204.989C93.9754 205.427 94.3316 205.783 94.7694 205.783H106.89C107.328 205.783 107.684 205.427 107.684 204.989C107.684 204.551 107.328 204.195 106.89 204.195H106.049C105.78 204.195 105.561 203.977 105.561 203.707C105.561 203.438 105.78 203.22 106.049 203.22H106.89C107.866 203.22 108.659 204.013 108.659 204.989C108.659 205.965 107.866 206.759 106.89 206.759Z" fill="#730202"/>
<path d="M99.4469 202.27L100.404 201.11L100.842 201.668L99.998 202.741C99.6748 203.152 99.0767 202.719 99.4469 202.27ZM100.565 199.627C100.656 199.33 100.614 199.076 100.272 198.698L99.4345 197.691C99.3157 197.552 99.0358 197.756 99.1527 197.925L99.8222 198.75C99.9488 198.904 99.7135 199.107 99.5827 198.949L98.8903 198.096C98.7613 197.948 98.4948 198.144 98.6297 198.313C98.8249 198.547 99.1269 198.931 99.3221 199.166C99.4575 199.303 99.2517 199.507 99.1182 199.336L98.4308 198.488C98.3299 198.379 98.1651 198.447 98.1214 198.575C98.0744 198.712 98.19 198.812 98.2687 198.913L99.0358 199.904C99.2738 200.18 99.5399 200.343 99.8493 200.251C99.8967 200.236 99.9548 200.207 100.017 200.169L102.078 202.829C102.189 202.973 102.403 202.988 102.542 202.872L102.574 202.846C102.73 202.716 102.756 202.478 102.622 202.324L100.439 199.816C100.503 199.745 100.549 199.678 100.565 199.627ZM101.148 200.207L101.488 199.796C101.051 198.714 102.669 197.272 103.453 197.935C104.405 198.741 102.989 200.684 101.994 200.204L101.592 200.714L101.148 200.207Z" fill="#F2E0D0"/>
<path d="M98.8882 209.871L100.924 211.907L102.96 209.871C103.2 209.632 103.334 209.307 103.334 208.968V208.91C103.334 208.236 102.788 207.689 102.114 207.689C101.743 207.689 101.392 207.858 101.16 208.148L100.924 208.443L100.688 208.148C100.456 207.858 100.106 207.689 99.7347 207.689C99.0604 207.689 98.5138 208.236 98.5138 208.91V208.968C98.5138 209.307 98.6485 209.632 98.8882 209.871Z" fill="#F23005"/>
</svg>
