<svg width="119" height="136" viewBox="0 0 119 136" fill="none" xmlns="http://www.w3.org/2000/svg">
<path d="M61.6572 64.9897C79.1435 64.9897 93.3189 50.4413 93.3189 32.4949C93.3189 14.5484 79.1435 0 61.6572 0C44.1709 0 29.9955 14.5484 29.9955 32.4949C29.9955 50.4413 44.1709 64.9897 61.6572 64.9897Z" fill="#F2E0D0"/>
<path d="M96.1243 136H22.1911C14.3113 136 7.90063 129.59 7.90063 121.71V77.6014C7.90063 75.5666 9.55036 73.9163 11.5857 73.9163C13.621 73.9163 15.2707 75.5663 15.2707 77.6014V121.71C15.2707 125.526 18.3752 128.63 22.1913 128.63H96.1246C99.9408 128.63 103.045 125.526 103.045 121.71V97.3066C103.045 95.2718 104.695 93.6215 106.73 93.6215C108.766 93.6215 110.415 95.2715 110.415 97.3066V121.71C110.415 129.59 104.004 136 96.1243 136Z" fill="white"/>
<path d="M104.946 81.2864H13.3688C5.99721 81.2864 0 75.2892 0 67.9176C0 60.546 5.99721 54.5488 13.3688 54.5488H19.7209C21.7562 54.5488 23.4059 56.1988 23.4059 58.2338C23.4059 60.2686 21.7562 61.9188 19.7209 61.9188H13.3688C10.0608 61.9188 7.36981 64.6103 7.36981 67.9179C7.36981 71.2254 10.0608 73.9169 13.3688 73.9169H104.946C108.254 73.9169 110.945 71.2254 110.945 67.9179C110.945 64.6103 108.254 61.9188 104.946 61.9188H98.5939C96.5586 61.9188 94.9089 60.2688 94.9089 58.2338C94.9089 56.199 96.5586 54.5488 98.5939 54.5488H104.946C112.318 54.5488 118.315 60.546 118.315 67.9176C118.315 75.2892 112.318 81.2864 104.946 81.2864Z" fill="white"/>
<path d="M48.7097 47.3755L55.9421 38.6056L59.2504 42.8253L52.8738 50.9343C50.4317 54.0374 45.9128 50.7673 48.7097 47.3755ZM57.1562 27.404C57.845 25.1567 57.5284 23.2364 54.9402 20.3838L48.6158 12.7758C47.7183 11.7217 45.6032 13.2698 46.4868 14.5465L51.5449 20.7769C52.5016 21.9388 50.7239 23.4765 49.736 22.2798L44.5039 15.8371C43.5298 14.7204 41.5156 16.1954 42.5349 17.4721C44.0099 19.2463 46.292 22.1441 47.767 23.9183C48.7897 24.9584 47.2347 26.4995 46.2259 25.2019L41.0321 18.801C40.2702 17.9731 39.0248 18.4879 38.6944 19.455C38.3395 20.4882 39.2127 21.2431 39.8076 22.0084L45.6032 29.4947C47.4017 31.5785 49.4124 32.8134 51.7502 32.1142C52.1085 32.0064 52.5468 31.7872 53.0164 31.4985L68.5874 51.5987C69.4258 52.6806 71.0434 52.7954 72.094 51.9223L72.334 51.724C73.5168 50.7395 73.7081 48.941 72.6958 47.7791L56.2065 28.8337C56.6865 28.298 57.0379 27.7901 57.1562 27.404ZM61.5638 31.7872L64.1276 28.6772C60.8297 20.5021 73.0506 9.60665 78.975 14.6161C86.1725 20.7074 75.4753 35.3877 67.9577 31.7594L64.9208 35.6173L61.5638 31.7872Z" fill="#424D1D"/>
<path d="M44.4889 104.807L59.8716 120.19L75.2543 104.807C77.0654 102.996 78.083 100.539 78.083 97.9776V97.5444C78.083 92.4497 73.9529 88.3196 68.8582 88.3196C66.0557 88.3196 63.4053 89.5934 61.6547 91.7817L59.8716 94.0107L58.0884 91.7817C56.3378 89.5934 53.6874 88.3196 50.885 88.3196C45.7903 88.3196 41.6602 92.4497 41.6602 97.5444V97.9776C41.6602 100.539 42.6777 102.996 44.4889 104.807Z" fill="#F2E0D0"/>
</svg>
