<svg width="1147" height="136" viewBox="0 0 1147 136" fill="none" xmlns="http://www.w3.org/2000/svg">
<path d="M61.6572 64.9897C79.1435 64.9897 93.3189 50.4413 93.3189 32.4949C93.3189 14.5484 79.1435 0 61.6572 0C44.1709 0 29.9955 14.5484 29.9955 32.4949C29.9955 50.4413 44.1709 64.9897 61.6572 64.9897Z" fill="#424D1D"/>
<path d="M96.1243 136H22.1911C14.3113 136 7.90063 129.59 7.90063 121.71V77.6014C7.90063 75.5666 9.55036 73.9163 11.5857 73.9163C13.621 73.9163 15.2707 75.5663 15.2707 77.6014V121.71C15.2707 125.526 18.3752 128.63 22.1913 128.63H96.1246C99.9408 128.63 103.045 125.526 103.045 121.71V97.3066C103.045 95.2718 104.695 93.6215 106.73 93.6215C108.766 93.6215 110.415 95.2715 110.415 97.3066V121.71C110.415 129.59 104.004 136 96.1243 136Z" fill="#730202"/>
<path d="M104.946 81.2864H13.3688C5.99721 81.2864 0 75.2892 0 67.9176C0 60.546 5.99721 54.5488 13.3688 54.5488H19.7209C21.7562 54.5488 23.4059 56.1988 23.4059 58.2338C23.4059 60.2686 21.7562 61.9188 19.7209 61.9188H13.3688C10.0608 61.9188 7.36981 64.6103 7.36981 67.9179C7.36981 71.2254 10.0608 73.9169 13.3688 73.9169H104.946C108.254 73.9169 110.945 71.2254 110.945 67.9179C110.945 64.6103 108.254 61.9188 104.946 61.9188H98.5939C96.5586 61.9188 94.9089 60.2688 94.9089 58.2338C94.9089 56.199 96.5586 54.5488 98.5939 54.5488H104.946C112.318 54.5488 118.315 60.546 118.315 67.9176C118.315 75.2892 112.318 81.2864 104.946 81.2864Z" fill="#730202"/>
<path d="M48.7097 47.3755L55.9421 38.6056L59.2504 42.8253L52.8738 50.9343C50.4317 54.0374 45.9128 50.7673 48.7097 47.3755ZM57.1562 27.404C57.845 25.1567 57.5284 23.2364 54.9402 20.3838L48.6158 12.7758C47.7183 11.7217 45.6032 13.2698 46.4868 14.5465L51.5449 20.7769C52.5016 21.9388 50.7239 23.4765 49.736 22.2798L44.5039 15.8371C43.5298 14.7204 41.5156 16.1954 42.5349 17.4721C44.0099 19.2463 46.292 22.1441 47.767 23.9183C48.7897 24.9584 47.2347 26.4995 46.2259 25.2019L41.0321 18.801C40.2702 17.9731 39.0248 18.4879 38.6944 19.455C38.3395 20.4882 39.2127 21.2431 39.8076 22.0084L45.6032 29.4947C47.4017 31.5785 49.4124 32.8134 51.7502 32.1142C52.1085 32.0064 52.5468 31.7872 53.0164 31.4985L68.5874 51.5987C69.4258 52.6806 71.0434 52.7954 72.094 51.9223L72.334 51.724C73.5168 50.7395 73.7081 48.941 72.6958 47.7791L56.2065 28.8337C56.6865 28.298 57.0379 27.7901 57.1562 27.404ZM61.5638 31.7872L64.1276 28.6772C60.8297 20.5021 73.0506 9.60665 78.975 14.6161C86.1725 20.7074 75.4753 35.3877 67.9577 31.7594L64.9208 35.6173L61.5638 31.7872Z" fill="#F2E0D0"/>
<path d="M44.4889 104.807L59.8716 120.19L75.2543 104.807C77.0654 102.996 78.083 100.539 78.083 97.9777V97.5445C78.083 92.4497 73.9529 88.3196 68.8582 88.3196C66.0557 88.3196 63.4053 89.5935 61.6547 91.7817L59.8716 94.0107L58.0884 91.7817C56.3378 89.5935 53.6874 88.3196 50.885 88.3196C45.7903 88.3196 41.6602 92.4497 41.6602 97.5445V97.9777C41.6602 100.539 42.6777 102.996 44.4889 104.807Z" fill="#F23005"/>
<path d="M148.315 84.494C148.315 76.5395 149.914 69.5677 153.114 63.5785C156.407 57.4957 160.923 52.8166 166.663 49.5412C172.403 46.2659 178.989 44.6282 186.422 44.6282C195.832 44.6282 203.594 46.8742 209.711 51.3661C215.921 55.7644 220.108 62.0812 222.272 70.3164H204.912C203.5 66.4795 201.242 63.4849 198.137 61.3325C195.032 59.1801 191.127 58.104 186.422 58.104C179.836 58.104 174.567 60.4435 170.615 65.1226C166.757 69.7081 164.828 76.1652 164.828 84.494C164.828 92.8227 166.757 99.3267 170.615 104.006C174.567 108.685 179.836 111.024 186.422 111.024C195.738 111.024 201.901 106.954 204.912 98.812H222.272C220.014 106.673 215.78 112.943 209.569 117.622C203.359 122.207 195.644 124.5 186.422 124.5C178.989 124.5 172.403 122.862 166.663 119.587C160.923 116.218 156.407 111.539 153.114 105.55C149.914 99.467 148.315 92.4484 148.315 84.494Z" fill="#424D1D"/>
<path d="M309.582 82.6691C309.582 85.5702 309.394 88.1904 309.018 90.53H249.598C250.068 96.7064 252.374 101.666 256.514 105.409C260.654 109.153 265.735 111.024 271.757 111.024C280.413 111.024 286.529 107.421 290.105 100.216H307.465C305.113 107.328 300.831 113.177 294.621 117.762C288.505 122.254 280.884 124.5 271.757 124.5C264.323 124.5 257.643 122.862 251.715 119.587C245.881 116.218 241.271 111.539 237.883 105.55C234.59 99.467 232.943 92.4484 232.943 84.494C232.943 76.5395 234.543 69.5677 237.742 63.5785C241.035 57.4957 245.599 52.8166 251.433 49.5412C257.361 46.2659 264.135 44.6282 271.757 44.6282C279.096 44.6282 285.635 46.2191 291.375 49.4009C297.115 52.5826 301.584 57.0746 304.783 62.8766C307.983 68.5851 309.582 75.1826 309.582 82.6691ZM292.787 77.6157C292.692 71.7201 290.575 66.9942 286.435 63.4381C282.295 59.882 277.167 58.104 271.051 58.104C265.5 58.104 260.748 59.882 256.796 63.4381C252.844 66.9006 250.492 71.6265 249.739 77.6157H292.787Z" fill="#424D1D"/>
<path d="M353.644 124.5C347.528 124.5 342.024 123.424 337.131 121.272C332.332 119.026 328.521 116.031 325.699 112.288C322.876 108.451 321.37 104.193 321.182 99.5138H337.836C338.119 102.789 339.671 105.55 342.494 107.796C345.411 109.948 349.034 111.024 353.362 111.024C357.878 111.024 361.36 110.182 363.806 108.498C366.347 106.72 367.617 104.474 367.617 101.76C367.617 98.8587 366.206 96.7064 363.383 95.3027C360.654 93.8989 356.279 92.3548 350.257 90.6704C344.423 89.0795 339.671 87.5354 336.002 86.0381C332.332 84.5408 329.133 82.248 326.404 79.1598C323.77 76.0716 322.452 72.0008 322.452 66.9474C322.452 62.8298 323.676 59.0866 326.122 55.7176C328.568 52.2551 332.05 49.5412 336.566 47.576C341.177 45.6108 346.446 44.6282 352.374 44.6282C361.219 44.6282 368.323 46.8742 373.686 51.3661C379.143 55.7644 382.06 61.8004 382.437 69.4741H366.347C366.064 66.0116 364.653 63.2509 362.112 61.1922C359.572 59.1334 356.138 58.104 351.809 58.104C347.575 58.104 344.329 58.8994 342.071 60.4903C339.812 62.0812 338.683 64.1868 338.683 66.807C338.683 68.8658 339.436 70.5971 340.942 72.0008C342.447 73.4046 344.282 74.5275 346.446 75.3698C348.61 76.1184 351.809 77.101 356.044 78.3176C361.689 79.8149 366.3 81.359 369.875 82.9499C373.545 84.4472 376.697 86.6931 379.332 89.6878C381.966 92.6824 383.33 96.6596 383.425 101.619C383.425 106.018 382.201 109.948 379.755 113.411C377.309 116.873 373.827 119.587 369.311 121.552C364.888 123.518 359.666 124.5 353.644 124.5Z" fill="#424D1D"/>
<path d="M419.582 58.9462V101.76C419.582 104.661 420.24 106.766 421.558 108.077C422.969 109.293 425.321 109.901 428.615 109.901H438.494V123.237H425.792C418.547 123.237 412.995 121.552 409.137 118.183C405.279 114.814 403.351 109.34 403.351 101.76V58.9462H394.177V45.8916H403.351V26.6605H419.582V45.8916H438.494V58.9462H419.582Z" fill="#424D1D"/>
<path d="M447.961 84.2132C447.961 76.446 449.56 69.5677 452.759 63.5785C456.053 57.5893 460.475 52.957 466.026 49.6816C471.672 46.3127 477.882 44.6282 484.657 44.6282C490.773 44.6282 496.089 45.8448 500.606 48.2779C505.216 50.6174 508.886 53.5653 511.615 57.1214V45.8916H527.846V123.237H511.615V111.726C508.886 115.376 505.169 118.417 500.465 120.85C495.76 123.284 490.397 124.5 484.375 124.5C477.694 124.5 471.578 122.816 466.026 119.447C460.475 115.984 456.053 111.212 452.759 105.129C449.56 98.9523 447.961 91.9805 447.961 84.2132ZM511.615 84.494C511.615 79.1598 510.485 74.5275 508.227 70.5971C506.063 66.6667 503.193 63.6721 499.618 61.6133C496.042 59.5545 492.184 58.5251 488.044 58.5251C483.904 58.5251 480.046 59.5545 476.471 61.6133C472.895 63.5785 469.978 66.5263 467.72 70.4567C465.556 74.2936 464.474 78.8791 464.474 84.2132C464.474 89.5474 465.556 94.2265 467.72 98.2505C469.978 102.274 472.895 105.363 476.471 107.515C480.14 109.574 483.998 110.603 488.044 110.603C492.184 110.603 496.042 109.574 499.618 107.515C503.193 105.456 506.063 102.462 508.227 98.5312C510.485 94.5072 511.615 89.8281 511.615 84.494Z" fill="#424D1D"/>
<path d="M577.207 124.5C571.091 124.5 565.586 123.424 560.694 121.272C555.895 119.026 552.084 116.031 549.261 112.288C546.438 108.451 544.933 104.193 544.745 99.5138H561.399C561.682 102.789 563.234 105.55 566.057 107.796C568.974 109.948 572.596 111.024 576.925 111.024C581.441 111.024 584.923 110.182 587.369 108.498C589.909 106.72 591.18 104.474 591.18 101.76C591.18 98.8587 589.768 96.7064 586.945 95.3027C584.217 93.8989 579.841 92.3548 573.82 90.6704C567.986 89.0795 563.234 87.5354 559.564 86.0381C555.895 84.5408 552.696 82.248 549.967 79.1598C547.332 76.0716 546.015 72.0008 546.015 66.9474C546.015 62.8298 547.238 59.0866 549.685 55.7176C552.131 52.2551 555.613 49.5412 560.129 47.576C564.74 45.6108 570.009 44.6282 575.937 44.6282C584.781 44.6282 591.885 46.8742 597.249 51.3661C602.706 55.7644 605.623 61.8004 605.999 69.4741H589.909C589.627 66.0116 588.216 63.2509 585.675 61.1922C583.135 59.1334 579.7 58.104 575.372 58.104C571.138 58.104 567.892 58.8994 565.633 60.4903C563.375 62.0812 562.246 64.1868 562.246 66.807C562.246 68.8658 562.999 70.5971 564.504 72.0008C566.01 73.4046 567.845 74.5275 570.009 75.3698C572.173 76.1184 575.372 77.101 579.606 78.3176C585.252 79.8149 589.862 81.359 593.438 82.9499C597.108 84.4472 600.26 86.6931 602.894 89.6878C605.529 92.6824 606.893 96.6596 606.987 101.619C606.987 106.018 605.764 109.948 603.318 113.411C600.871 116.873 597.39 119.587 592.873 121.552C588.451 123.518 583.229 124.5 577.207 124.5Z" fill="#F23A29"/>
<path d="M658.105 124.5C650.766 124.5 644.132 122.862 638.204 119.587C632.277 116.218 627.619 111.539 624.232 105.55C620.844 99.467 619.151 92.4484 619.151 84.494C619.151 76.6331 620.891 69.6613 624.373 63.5785C627.854 57.4957 632.606 52.8166 638.628 49.5412C644.65 46.2659 651.378 44.6282 658.811 44.6282C666.244 44.6282 672.972 46.2659 678.994 49.5412C685.016 52.8166 689.767 57.4957 693.249 63.5785C696.73 69.6613 698.471 76.6331 698.471 84.494C698.471 92.3548 696.683 99.3267 693.108 105.409C689.532 111.492 684.639 116.218 678.429 119.587C672.313 122.862 665.539 124.5 658.105 124.5ZM658.105 110.603C662.245 110.603 666.103 109.621 669.679 107.655C673.348 105.69 676.312 102.742 678.57 98.812C680.829 94.8815 681.958 90.1089 681.958 84.494C681.958 78.8791 680.876 74.1532 678.712 70.3164C676.547 66.3859 673.678 63.4381 670.102 61.4729C666.526 59.5077 662.669 58.5251 658.529 58.5251C654.389 58.5251 650.531 59.5077 646.955 61.4729C643.474 63.4381 640.698 66.3859 638.628 70.3164C636.558 74.1532 635.523 78.8791 635.523 84.494C635.523 92.8227 637.64 99.2799 641.874 103.865C646.202 108.357 651.613 110.603 658.105 110.603Z" fill="#F23A29"/>
<path d="M730.467 19.3612V123.237H714.377V19.3612H730.467Z" fill="#F23A29"/>
<path d="M759.777 35.6444C756.861 35.6444 754.414 34.6618 752.438 32.6965C750.462 30.7313 749.474 28.2982 749.474 25.3972C749.474 22.4961 750.462 20.063 752.438 18.0978C754.414 16.1326 756.861 15.15 759.777 15.15C762.6 15.15 765 16.1326 766.976 18.0978C768.952 20.063 769.939 22.4961 769.939 25.3972C769.939 28.2982 768.952 30.7313 766.976 32.6965C765 34.6618 762.6 35.6444 759.777 35.6444ZM767.681 45.8916V123.237H751.591V45.8916H767.681Z" fill="#F23A29"/>
<path d="M783.443 84.2132C783.443 76.446 785.042 69.5677 788.241 63.5785C791.535 57.5893 795.957 52.957 801.508 49.6816C807.154 46.3127 813.411 44.6282 820.28 44.6282C825.361 44.6282 830.348 45.7512 835.241 47.9971C840.228 50.1495 844.18 53.0505 847.096 56.7002V19.3612H863.328V123.237H847.096V111.586C844.462 115.329 840.792 118.417 836.088 120.85C831.477 123.284 826.161 124.5 820.139 124.5C813.364 124.5 807.154 122.816 801.508 119.447C795.957 115.984 791.535 111.212 788.241 105.129C785.042 98.9523 783.443 91.9805 783.443 84.2132ZM847.096 84.494C847.096 79.1598 845.967 74.5275 843.709 70.5971C841.545 66.6667 838.675 63.6721 835.1 61.6133C831.524 59.5545 827.666 58.5251 823.526 58.5251C819.386 58.5251 815.528 59.5545 811.953 61.6133C808.377 63.5785 805.46 66.5263 803.202 70.4567C801.038 74.2936 799.956 78.8791 799.956 84.2132C799.956 89.5474 801.038 94.2265 803.202 98.2505C805.46 102.274 808.377 105.363 811.953 107.515C815.622 109.574 819.48 110.603 823.526 110.603C827.666 110.603 831.524 109.574 835.1 107.515C838.675 105.456 841.545 102.462 843.709 98.5312C845.967 94.5072 847.096 89.8281 847.096 84.494Z" fill="#F23A29"/>
<path d="M879.098 84.2132C879.098 76.446 880.697 69.5677 883.896 63.5785C887.19 57.5893 891.612 52.957 897.164 49.6816C902.809 46.3127 909.019 44.6282 915.794 44.6282C921.91 44.6282 927.226 45.8448 931.743 48.2779C936.353 50.6174 940.023 53.5653 942.752 57.1214V45.8916H958.983V123.237H942.752V111.726C940.023 115.376 936.306 118.417 931.602 120.85C926.897 123.284 921.534 124.5 915.512 124.5C908.831 124.5 902.715 122.816 897.164 119.447C891.612 115.984 887.19 111.212 883.896 105.129C880.697 98.9523 879.098 91.9805 879.098 84.2132ZM942.752 84.494C942.752 79.1598 941.622 74.5275 939.364 70.5971C937.2 66.6667 934.33 63.6721 930.755 61.6133C927.179 59.5545 923.321 58.5251 919.181 58.5251C915.041 58.5251 911.183 59.5545 907.608 61.6133C904.032 63.5785 901.115 66.5263 898.857 70.4567C896.693 74.2936 895.611 78.8791 895.611 84.2132C895.611 89.5474 896.693 94.2265 898.857 98.2505C901.115 102.274 904.032 105.363 907.608 107.515C911.277 109.574 915.135 110.603 919.181 110.603C923.321 110.603 927.179 109.574 930.755 107.515C934.33 105.456 937.2 102.462 939.364 98.5312C941.622 94.5072 942.752 89.8281 942.752 84.494ZM936.259 25.1164L905.067 40.417V28.6257L936.259 11.5003V25.1164Z" fill="#F23A29"/>
<path d="M996.206 57.1214C998.558 53.1909 1001.66 50.1495 1005.52 47.9971C1009.47 45.7512 1014.13 44.6282 1019.49 44.6282V61.1922H1015.4C1009.1 61.1922 1004.3 62.783 1001 65.9648C997.806 69.1466 996.206 74.6679 996.206 82.5288V123.237H980.116V45.8916H996.206V57.1214Z" fill="#F23A29"/>
<path d="M1042.47 35.6444C1039.55 35.6444 1037.11 34.6618 1035.13 32.6965C1033.15 30.7313 1032.17 28.2982 1032.17 25.3972C1032.17 22.4961 1033.15 20.063 1035.13 18.0978C1037.11 16.1326 1039.55 15.15 1042.47 15.15C1045.29 15.15 1047.69 16.1326 1049.67 18.0978C1051.64 20.063 1052.63 22.4961 1052.63 25.3972C1052.63 28.2982 1051.64 30.7313 1049.67 32.6965C1047.69 34.6618 1045.29 35.6444 1042.47 35.6444ZM1050.37 45.8916V123.237H1034.28V45.8916H1050.37Z" fill="#F23A29"/>
<path d="M1066.14 84.2132C1066.14 76.446 1067.73 69.5677 1070.93 63.5785C1074.23 57.5893 1078.65 52.957 1084.2 49.6816C1089.85 46.3127 1096.06 44.6282 1102.83 44.6282C1108.95 44.6282 1114.26 45.8448 1118.78 48.2779C1123.39 50.6174 1127.06 53.5653 1129.79 57.1214V45.8916H1146.02V123.237H1129.79V111.726C1127.06 115.376 1123.34 118.417 1118.64 120.85C1113.93 123.284 1108.57 124.5 1102.55 124.5C1095.87 124.5 1089.75 122.816 1084.2 119.447C1078.65 115.984 1074.23 111.212 1070.93 105.129C1067.73 98.9523 1066.14 91.9805 1066.14 84.2132ZM1129.79 84.494C1129.79 79.1598 1128.66 74.5275 1126.4 70.5971C1124.24 66.6667 1121.37 63.6721 1117.79 61.6133C1114.22 59.5545 1110.36 58.5251 1106.22 58.5251C1102.08 58.5251 1098.22 59.5545 1094.65 61.6133C1091.07 63.5785 1088.15 66.5263 1085.89 70.4567C1083.73 74.2936 1082.65 78.8791 1082.65 84.2132C1082.65 89.5474 1083.73 94.2265 1085.89 98.2505C1088.15 102.274 1091.07 105.363 1094.65 107.515C1098.31 109.574 1102.17 110.603 1106.22 110.603C1110.36 110.603 1114.22 109.574 1117.79 107.515C1121.37 105.456 1124.24 102.462 1126.4 98.5312C1128.66 94.5072 1129.79 89.8281 1129.79 84.494Z" fill="#F23A29"/>
</svg>
